<?xml version="1.0" standalone="no"?>
<!DOCTYPE svg PUBLIC "-//W3C//DTD SVG 1.1//EN" "http://www.w3.org/Graphics/SVG/1.1/DTD/svg11.dtd" >
<svg xmlns="http://www.w3.org/2000/svg" xmlns:xlink="http://www.w3.org/1999/xlink" version="1.1">
<metadata>
Created by FontForge 20161116 at Fri Oct 10 17:15:11 2014
 By Jimmy Wärting
Created with the help of MyScriptFont.com
Copyright belongs to the Creator.
</metadata>
<defs>
<font id="Tomb_Raider" horiz-adv-x="10" >
  <font-face 
    font-family="Tomb_Raider"
    font-weight="500"
    font-stretch="normal"
    units-per-em="1000"
    panose-1="2 0 6 3 0 0 0 0 0 0"
    ascent="800"
    descent="-200"
    x-height="470"
    cap-height="700"
    bbox="9.08 -200 965.769 798.562"
    underline-thickness="50"
    underline-position="-150"
    unicode-range="U+0020-20AC"
  />
<missing-glyph horiz-adv-x="364" 
d="M33 0v666h265v-666h-265zM66 33h199v600h-199v-600z" />
    <glyph glyph-name=".notdef" horiz-adv-x="364" 
d="M33 0v666h265v-666h-265zM66 33h199v600h-199v-600z" />
    <glyph glyph-name=".null" horiz-adv-x="0" 
 />
    <glyph glyph-name="nonmarkingreturn" horiz-adv-x="333" 
 />
    <glyph glyph-name="space" unicode=" " horiz-adv-x="420" 
 />
    <glyph glyph-name="exclam" unicode="!" horiz-adv-x="241" 
d="M43.5 200q12.5 5 83 3.5t86.5 -6.5q11 -4 8 -75l-2 -72h-189l-2 72q-2 50 0.5 61.5t15 16.5zM59 302q0 25 -12 71.5t-24.5 105t-12.5 112.5v61h221v-75q0 -76 -16 -146l-46 -192l-47 -3q-32 -2 -40.5 1t-14.5 18q-8 21 -8 47z" />
    <glyph glyph-name="numbersign" unicode="#" horiz-adv-x="594" 
d="M187 637q18 4 59.5 1t48.5 -10q7 -6 -3 -41q-8 -33 0.5 -41.5t46.5 -6.5l39 3l17 90h131v-90l58 -8v-156l-44 -5q-43 -6 -46 -9t-6 -31q-2 -22 2.5 -26t31.5 -7l37 -4v-156l-106 -8l-25 -107l-53 3q-56 2 -66 7.5t-5 33.5q0 4 2 11q6 39 2.5 45.5t-31.5 6.5h-8h-45
l-34 -98h-123l4 28q6 51 2 60.5t-30 13.5l-33 4v156l98 8l3 30q2 23 -2.5 27t-30.5 6l-35 3v164l97 8l13 44q8 27 15 37t19 14zM349 343q-2 19 -8 23t-37 6q-42 3 -46.5 -4.5t-10.5 -41.5l-6 -34h45q40 0 52.5 10.5t10.5 40.5z" />
    <glyph glyph-name="dollar" unicode="$" horiz-adv-x="598" 
d="M271 667q5 20 11.5 23.5t33.5 1.5q26 -2 32.5 -6t9.5 -21q2 -14 7.5 -20t16.5 -7q32 -3 88.5 -22.5t73.5 -33.5q1 -1 4 -3q13 -10 13.5 -14.5t-10.5 -19.5q-21 -28 -37 -59q-27 -47 -31.5 -47t-17.5 11q-11 10 -46.5 24.5t-48.5 14.5q-12 0 -12.5 -31.5t10.5 -41.5
q11 -9 48 -14q53 -8 95 -37t61 -71q35 -77 -5.5 -151.5t-132.5 -99.5l-66 -18q-10 -3 -10 -40t-6 -40.5t-45 0.5l-39 5v36q0 36 -11 39q-3 1 -28.5 6.5t-50.5 12t-59 17.5t-59 23q-19 10 -27.5 14t-15.5 12t-7.5 12t4.5 17t12 23t23 33q30 44 39 50.5t23 -5.5q15 -14 24 -14
q5 0 36.5 -15.5t58.5 -18.5q21 -2 27.5 1.5t12.5 18.5q8 25 1.5 36t-29.5 11q-30 0 -81 24.5t-79 53.5q-29 29 -38 62t-2 87q4 26 11 42t23 34q57 63 142 73q32 4 39.5 8.5t13.5 23.5zM274 466q2 22 -1 26.5t-22 4.5q-20 0 -27.5 -10t-3.5 -33q1 -11 6.5 -15t20.5 -4
q17 0 21.5 5t5.5 26zM405 212q-5 11 -20.5 20.5t-20.5 4.5q-8 -8 -5 -31t12 -26q12 -5 25 7.5t9 24.5z" />
    <glyph glyph-name="percent" unicode="%" horiz-adv-x="802" 
d="M554 321q18 11 65.5 10.5t71.5 -10.5q57 -25 83.5 -78t14 -112.5t-60.5 -101.5q-24 -21 -37.5 -24.5t-66 -3.5t-66.5 3.5t-37 24.5q-75 64 -65 143q7 54 30 89t68 60zM658 198q-9 19 -29 20.5t-37 -14.5t-17 -39.5t15 -38.5t37 -13q17 2 23 8t10 25q8 31 -2 52zM610 614
q96 12 96 -6q0 -12 -7 -17q-7 -4 -145.5 -173.5t-162.5 -203.5q-20 -28 -81 -101t-70 -90q-7 -12 -19 -15t-56 -3q-65 0 -65 6t61.5 83.5t72.5 86.5q7 5 28 31.5t53.5 68t57.5 70.5q27 31 57 70.5t82 102.5q45 53 64 70.5t34 19.5zM104 603q16 26 86 22q45 -2 81.5 -26
t54.5 -60.5t20 -81.5t-21 -89q-24 -47 -56.5 -65.5t-89.5 -18.5q-40 0 -55.5 4t-39.5 22q-33 24 -53.5 66.5t-20.5 84.5q0 35 22.5 76t45.5 50q20 7 26 16zM205 500q-14 18 -21 20t-21 -9q-26 -20 -24 -64t29 -60q9 -6 15.5 -3t18.5 17q19 22 20 49.5t-17 49.5z" />
    <glyph glyph-name="ampersand" unicode="&#x26;" horiz-adv-x="593" 
d="M217 656q101 18 168.5 -20t73.5 -116q3 -51 -6 -73.5t-48 -60.5l-47 -45l24 -25q13 -14 20.5 -17t13.5 2q11 9 11 16.5t22 36.5l21 28l27 -16q26 -17 37.5 -17t30.5 -14l18 -15l-16 -34q-13 -27 -24.5 -39t-20.5 -31q-10 -19 -7 -27t29 -35q24 -25 27 -32t-8 -13
q-8 -5 -25.5 -18.5t-32.5 -24.5t-31 -20t-27.5 -8.5t-16.5 12.5q-8 21 -26 22.5t-52 -15.5q-30 -16 -52 -19.5t-90 -3.5q-80 0 -115.5 10.5t-66.5 44.5q-14 14 -16.5 31.5t-0.5 89.5l2 101l43 34q33 25 40 40t-6 28q-11 11 -11 78q0 47 3.5 62t20.5 34q28 34 51.5 48
t62.5 21zM300 513q-21 23 -41 13.5t-20 -42.5q0 -25 13 -43q8 -12 13 -13t15 5q16 10 25 37q6 18 5 25.5t-10 17.5zM283 199q-8 13 -41 41q-22 18 -29.5 20.5t-14.5 -6.5q-12 -13 -10.5 -38t13.5 -37q17 -17 56 -12q32 4 31 21q-1 5 -5 11z" />
    <glyph glyph-name="quotesingle" unicode="'" horiz-adv-x="226" 
d="M29 629q5 8 96 5l91 -2v-116q-1 -82 -4 -104t-17 -42q-19 -29 -58 -49.5t-75 -20.5q-26 0 -33.5 3.5t-13.5 18.5q-17 44 17 44q15 0 41 24t22 35q-3 10 -39 14l-35 4l1 89q2 89 7 97z" />
    <glyph glyph-name="parenleft" unicode="(" horiz-adv-x="354" 
d="M222 599q45 27 50 28q4 1 22 -23.5t18 -31.5t16 -22q22 -20 11.5 -41.5t-68.5 -73.5q-30 -26 -50 -47.5t-18 -24.5q5 -7 6 -107q0 -67 3.5 -87.5t15.5 -37.5q19 -26 19 -31.5t20 -31.5q13 -17 15.5 -27t-2.5 -28q-9 -31 -5 -32q1 -1 4 -1q9 0 9 16t9 22q7 4 23.5 -9
t16.5 -24q0 -13 -18 -43.5t-33 -42.5q-14 -11 -21 -11t-31 12q-71 36 -131.5 103.5t-60.5 88.5q0 9 -14 37q-14 27 -17 88.5t6 110.5q17 85 67 151t138 120z" />
    <glyph glyph-name="parenright" unicode=")" horiz-adv-x="363" 
d="M20 516q0 14 29.5 59t39.5 45q8 0 31.5 -16.5t27.5 -16.5q16 0 55.5 -35.5t71 -76.5t27.5 -54q-4 -12 3.5 -19t16.5 -17.5t9 -26.5q0 -24 13 -53q8 -19 9 -37t-5 -57q-8 -65 -18.5 -94.5t-42.5 -77.5q-30 -46 -70.5 -79.5t-78 -54.5t-42.5 -25q-4 -1 -7.5 -1t-12 11
t-20 27.5t-31.5 48.5l-15 23l53 51q18 17 32.5 33.5t24.5 33t17.5 29t11.5 28t6.5 24.5t3 23.5t0.5 19t-0.5 18.5t-0.5 15q-3 48 -8 69t-22 51q-28 50 -24 54q2 1 10 1q12 0 12 7.5t-27 6.5q-23 0 -42.5 15t-28 29.5t-8.5 18.5zM154 476q-7 -17 1 -17q10 1 16 13q3 8 -3 12
q-9 5 -14 -8zM205 473q7 11 1 12t-14 -9q-10 -12 -1.5 -12t14.5 9z" />
    <glyph glyph-name="asterisk" unicode="*" horiz-adv-x="372" 
d="M147 611q7 7 44 3.5t46 -11.5q5 -5 -8 -52.5t-9 -51.5q6 -6 46 34l40 39l25 -35q14 -19 20.5 -30.5t4 -18.5t-6.5 -9.5t-16 -7t-19 -7.5q-15 -8 -35.5 -8t-20.5 -7q0 -11 14.5 -18.5t35.5 -7.5q29 0 44 -11q10 -7 9.5 -14t-15.5 -32q-23 -42 -36 -45t-43 26
q-36 34 -42 30q-4 -2 0 -18.5t10.5 -38.5t6.5 -34q0 -13 -7.5 -16t-42.5 -3h-51l5 53q4 54 -1 54q-3 0 -13 -9.5t-21.5 -20t-23.5 -18.5t-22.5 -6t-16.5 19q-6 15 -14.5 28t-13 18t-3 11t12.5 14q19 13 38 13q12 0 24.5 4t19 10.5t3.5 10.5q-5 8 -19 8t-50 16l-36 17l17 18
q9 10 16 24t10.5 21.5t10.5 11.5t19 -3.5t32 -27.5q38 -36 42 -36q3 0 -2.5 26t-10.5 51.5t3 36.5z" />
    <glyph glyph-name="plus" unicode="+" horiz-adv-x="466" 
d="M154 533q6 6 88 3l83 -2v-140l131 -8v-164h-123l-8 -139h-173l-8 139l-126 5l-5 34q-5 35 -2 80l2 45l54 1q60 0 70 9q11 19 11 66q0 65 6 71z" />
    <glyph glyph-name="comma" unicode="," horiz-adv-x="220" 
d="M13 232q2 7 23.5 8.5t77.5 0.5l96 -2v-115q0 -84 -3 -104.5t-20 -45.5q-20 -31 -57 -50t-80 -20l-37 -2l-2 31q-2 20 1.5 27t18.5 13q23 9 37.5 22.5t14.5 26.5q0 9 -7.5 12.5t-27.5 4.5l-35 3l-2 90q-3 89 2 100z" />
    <glyph glyph-name="hyphen" unicode="-" horiz-adv-x="331" 
d="M15 190l-5 159l308 -4l3 -68q2 -69 -5.5 -78.5t-154.5 -8.5h-146z" />
    <glyph glyph-name="period" unicode="." horiz-adv-x="226" 
d="M15.5 237.5q5.5 5.5 102.5 5.5h98l-5 -201l-82 -3h-18q-24 -1 -34 -1.5t-24.5 1t-18.5 2.5t-11 6.5t-8 9.5t-3 16.5t-2 21v29.5v15q0 93 5.5 98.5z" />
    <glyph glyph-name="slash" unicode="/" horiz-adv-x="531" 
d="M390 696q12 5 54 4t60 -6q6 -2 10 -5t5.5 -8t2 -10t-2 -13t-5.5 -15t-8 -18t-9 -20t-11 -22.5t-12 -24.5l-111 -235l-53 -107q-29 -59 -38 -76l-20 -38q-25 -50 -60 -39l-15 5q1 1 13 2q18 0 19 11q-5 12 -24 14q-14 0 -20 -4t-8 -16q-4 -20 10 -33.5t32 -7.5
q16 5 16 0.5t-15 -33.5q-16 -32 -16 -44t-21 -40l-22 -28l-67 3q-46 2 -55.5 4.5t-7.5 14.5t18 32.5t16 28.5q0 12 17 49l34 74q17 37 25 53l78 160l152 321q29 63 39 67zM132 0q6 17 0.5 21t-19.5 -7q-19 -16 -19 -21t8.5 -5.5t18 3.5t11.5 9zM135 -44q0 8 -8.5 8t-8.5 -8
t8.5 -8t8.5 8z" />
    <glyph glyph-name="zero" unicode="0" horiz-adv-x="616" 
d="M78 513q11 0 17 -5t8 -11t7 -11.5t13 -5.5q10 0 23 -4t16 -2.5t1 12.5q-3 10 1.5 13t21.5 3q27 1 27 -6.5t16 -2.5q22 6 19 -16q-1 -14 -11 -37q-28 -59 -20.5 -116t46.5 -94q23 -22 48 -22.5t44.5 16t32.5 50t14 74.5q0 27 -10 61.5t-21 47.5q-13 15 -8.5 29.5
t22.5 17.5q19 3 44 27q16 16 27.5 19.5t42.5 1.5q19 -1 28 -2t16 -6t9.5 -9t9.5 -16t14 -22q6 -10 13 -36t13 -66t0 -87.5t-22 -93.5t-57 -89.5t-102 -71.5q-103 -47 -213 -5q-70 26 -112.5 74.5t-68.5 131.5q-19 60 -17 109.5t26 102.5q14 29 21.5 38t20.5 9zM357.5 546.5
q5.5 8.5 16.5 -1.5q11 -9 8 -13.5t-17 1.5q-13 5 -7.5 13.5zM123 525q0 12 13.5 23t23.5 -2q5 -8 21 -8t16 -9q0 -7 -19 -4t-25 -8q-4 -10 -17 -6.5t-13 14.5zM240 542q-10 0 -22 16q-14 21 12 21q16 0 29 -20.5t8 -37.5q-6 -19 -13 -9q-3 4 -3 16q-1 5 -4 9.5t-7 4.5z
M238 656q44 12 71.5 11.5t75.5 -12.5q37 -9 76 -32.5t39 -37.5q0 -6 -14 -7t-29 3t-18 11q-5 14 -14 5t0 -21q8 -9 4.5 -15.5t-16.5 -6.5q-5 0 -8 3t-3 8q0 11 -16.5 25t-24.5 9q-7 -4 -15 1t-12.5 7t-13.5 -12q-9 -16 -21 -16t-20 16q-5 10 -14.5 13t-31.5 3q-35 0 -33 -6
q4 -7 -2.5 -18t-42.5 -3q-27 7 -27 10q0 2 7 5q15 7 31 -3q9 -6 15.5 -6.5t6 4.5t-6.5 13q-12 15 1.5 26.5t55.5 22.5z" />
    <glyph glyph-name="one" unicode="1" horiz-adv-x="352" 
d="M163 635q29 8 89 8t75 -7q10 -6 12.5 -50.5t2.5 -251.5q1 -181 -1 -239.5t-9 -64.5q-12 -10 -101 -7l-89 2l-1 216q0 216 -5 219q-3 3 -43.5 -8.5t-50.5 -1.5q-8 8 -22 68.5t-9 67.5q5 8 152 49z" />
    <glyph glyph-name="two" unicode="2" horiz-adv-x="530" 
d="M257 647q32 4 63 -3t53 -16t29 -9q19 0 51 -26.5t47 -53.5q20 -39 20.5 -98t-20.5 -84q-6 -8 -17.5 -24t-18 -23t-22.5 -21.5t-40.5 -31.5t-61.5 -39q-33 -21 -18 -27q14 -6 92 -8l101 -2v-131l-111 -6q-110 -5 -165 -14t-133 -8.5t-83 8.5q-6 9 -10 78q-3 47 -1.5 59
t12.5 15q12 5 56.5 40.5t54.5 40.5q13 8 36 24t39 27t18 11q11 0 47.5 34t39.5 47q7 30 4 40t-20 18q-29 12 -56 4.5t-44.5 -21t-32 -27t-18.5 -13.5q-11 0 -92 70l-46 39l35 36q43 44 90 65t122 30z" />
    <glyph glyph-name="three" unicode="3" horiz-adv-x="486" 
d="M386.5 173q60.5 12 75 11t14.5 -18q0 -26 -18 -34q-26 -10 -180 -11q-170 -1 -170 7t25 8q21 0 107 12.5t146.5 24.5zM119 315q4 6 120 8q112 0 112 -9q-3 -10 -109 -12q-123 -3 -124 8q-1 2 1 5zM108 364q0 5 49 46t49 46q0 7 -96 10l-97 2l-2 79q-2 53 0 67t12 16
q17 5 222 5.5t222 -9.5q9 -10 9 -69v-59l-61 -50q-61 -50 -60 -61q0 -6 11 -10q31 -12 -16 -17q-32 -3 -107 -3q-135 0 -135 7z" />
    <glyph glyph-name="four" unicode="4" horiz-adv-x="601" 
d="M416 40q42 4 71.5 2t29.5 -8q0 -9 -68 -11q-63 -2 -69 7q-3 7 36 10zM160 456q3 0 37 -16.5t46 -16.5q77 0 -2 -91l-2 -2q-45 -50 -39 -55.5t65 -8.5q43 -2 53 0.5t17 17.5q3 5 5 8t4.5 5.5t6.5 3.5t7.5 2t12 0.5t16 -0.5t22.5 -1t30 -1q48 -1 61.5 -3.5t16.5 -13.5
q5 -16 39 -18l35 -3v-131l-25 -3q-37 -4 -281.5 -1.5t-249.5 7.5q-8 8 -18 71.5t-6 76.5q5 13 74 93t75 80zM281 464q-15 0 -34.5 16.5t-28.5 16.5q-14 0 -19 5q-3 3 30.5 50.5t60.5 78.5q10 11 28 12.5t88 -2.5q103 -6 108.5 -11.5t7.5 -132.5l3 -127l-42 -4
q-32 -4 -53 -14.5t-57 -12.5l-44 -2v24q0 17 4.5 21.5t25.5 6.5q36 3 44 18q4 8 -10 12q-6 2 -51.5 23.5t-60.5 21.5z" />
    <glyph glyph-name="five" unicode="5" horiz-adv-x="539" 
d="M96.5 302q-0.5 6 73.5 6t74 -8t-15.5 -8t-36.5 -17l-20 -16l-38 18q-37 19 -37.5 25zM225 46q-43 0 -71 10t-48.5 20.5t-44.5 10.5q-27 0 -43 11q-11 8 -6 17.5t39 48.5q48 54 55 54q3 0 30 -12.5t57.5 -25t67.5 -12.5t59 21q34 31 13 72q-10 19 -21 25t-34 6
q-26 0 -27 9q0 5 10.5 9.5t122.5 5.5q76 0 96 -2.5t30 -13.5q16 -17 19 -61.5t-10 -70.5t-13 -38q0 -9 -21 -30t-51.5 -42t-66 -30.5t-64.5 5.5q-26 13 -78 13zM432 602q3 1 9 2q49 9 57 2.5t7 -58.5q-1 -6 -1 -9l-2 -71h-287l-2 -35q-3 -29 5 -33.5t34 11.5
q25 14 78.5 11.5t89.5 -19.5q18 -8 33.5 -18.5t23 -19t4.5 -11.5q-4 -3 -209 -12q-189 -7 -212 1q-14 6 -7 26q5 17 10 99l4 82l54 7q34 5 114 18.5t115 16.5q45 3 82 10z" />
    <glyph glyph-name="six" unicode="6" horiz-adv-x="539" 
d="M28 305q9 6 22.5 10t34 7t37.5 4.5t46 2t45.5 0.5h50.5h48q122 0 157 -2.5t37 -10.5q4 -12 16 -39q17 -39 -4 -104.5t-62 -97.5q-55 -45 -139 -58t-147 14q-30 12 -52 25t-34.5 23.5t-22.5 25.5t-14 24.5t-11 29t-12 30.5q-7 17 -12 59q-3 30 -0.5 38.5t16.5 18.5z
M324 272q-22 25 -58 25t-55 -24q-16 -20 -14.5 -53t18.5 -50q21 -19 58.5 -18t50.5 21q16 23 16 52.5t-16 46.5zM265 406q33 17 85.5 15.5t77.5 -19.5q22 -16 22 -22q0 -2 -14.5 -3.5t-40 -2t-55.5 -0.5q-111 0 -111 7.5t36 24.5zM275 647q36 4 103 -8.5t89 -27.5
q9 -6 19.5 -11.5t15.5 -7t9 -6t4 -7t-4.5 -12t-10.5 -19t-20 -30.5q-36 -54 -40 -64q-1 -4 -3 -5t-6.5 0.5t-9.5 4.5t-14 6.5t-19.5 7t-26 6.5t-32.5 4q-35 3 -48.5 0.5t-28.5 -14.5q-17 -13 -32 -37.5t-23 -28.5q-17 -8 -83 -20.5t-81 -10.5t-17.5 8.5t-0.5 35.5q1 19 8 43
t25.5 56.5t46 59.5t74.5 48.5t106 28.5z" />
    <glyph glyph-name="seven" unicode="7" horiz-adv-x="519" 
d="M47 45q14 8 22 8t22 -7q29 -16 7 -22q-9 -3 -24 -3q-40 0 -37 14q1 5 10 10zM115 157q15 17 23 10q2 -1 2 -6q0 -7 -13 -12q-18 -6 -18 -3q-1 2 6 11zM252 171q4 6 31.5 6t31.5 -7q-1 -5 -0.5 -6t-4.5 -11.5t-9.5 -18t-14.5 -26t-19 -35.5q-23 -43 -29 -43
q-18 0 -57.5 30t-40.5 43q0 3 26.5 18t55 31t30.5 19zM212 330l22 28l93 -1q92 -2 95 -7t-11 -23q-12 -14 -49.5 -22.5t-116.5 -16.5q-47 -4 -52.5 3t19.5 39zM18 625q9 11 239 12t242 -11q10 -10 10 -77q0 -49 -4.5 -64t-26.5 -45q-11 -15 -13.5 -19t-11.5 -11.5t-11 -8
t-16.5 -3t-22 -2t-33.5 -0.5t-46 -2q-65 -3 -66 12q0 7 8 18q17 25 8 31q-11 9 -128 11l-133 2l-3 73q-2 72 8 84z" />
    <glyph glyph-name="eight" unicode="8" horiz-adv-x="549" 
d="M425 271q69 10 77 9q10 -2 23.5 -32.5t13.5 -52.5q0 -27 -11 -53q-10 -23 -45.5 -58.5t-54.5 -40.5q-7 -2 -33.5 -12t-51 -13.5t-68.5 -3.5q-110 -1 -181.5 41.5t-81.5 114.5q-5 33 3.5 47.5t37.5 19.5q27 5 27 -4q-1 -6 -16 -11q-17 -5 -17 -13q0 -5 4.5 -5t15.5 3.5
t25 8.5t38.5 12t50.5 12q15 3 18.5 -0.5t3.5 -19.5q0 -32 20 -51t48.5 -17t50.5 25q14 14 17.5 24t0.5 25q-5 22 3 27q10 7 82 18zM232 647q46 7 110 -6.5t104 -39.5q26 -17 48.5 -48.5t14.5 -39.5q-9 -9 -93.5 -16t-97.5 0q-21 11 -49 7.5t-48 -19.5q-25 -21 -40 -21
t-70 -13q-47 -12 -62 -6t-20 38q-4 26 12 56.5t46 54.5q47 37 145 53z" />
    <glyph glyph-name="nine" unicode="9" horiz-adv-x="547" 
d="M505 199q0 -18 -28 -52t-57 -59.5t-35 -25.5q-7 0 -19 -7t-40 -14.5t-75 -9.5q-43 -2 -67 1t-57 14q-54 19 -80 40q-18 15 -20 21.5t7 22.5q57 104 71 104q8 0 33 -17q14 -11 31.5 -14.5t53.5 -4.5q44 0 55 3t26 21q39 48 25 59q-6 5 -22 -3q-35 -16 -55.5 -21.5
t-46.5 -5.5q-157 0 -193 156q-10 45 21.5 118.5t68.5 86.5q10 4 17.5 9t11 7.5t13 2.5t28.5 -4q40 -7 44 -4q3 4 0.5 9t-10.5 8.5t-17 3.5q-19 0 -20 8t18 11q23 5 77.5 5t74.5 -4q14 -3 21 -9t5.5 -13t-12.5 -11q-9 -4 -16 0.5t-14 7.5t-30 -5q-26 -9 -26 -14
q0 -3 66.5 -14t104.5 -14q18 -2 41.5 -31.5t40.5 -74.5q13 -31 15.5 -54.5t1.5 -84.5q-3 -92 -17.5 -112t-14.5 -36zM144 611.5q0 8.5 -7 8.5q-9 0 -13 -9q-1 -7 8 -8q12 0 12 8.5zM333 587q0 8 -8.5 8t-8.5 -8t8.5 -8t8.5 8zM325 503q-11 17 -19.5 22t-28.5 5
q-18 0 -29.5 -5.5t-24.5 -19.5q-15 -15 -18.5 -25t-0.5 -29q5 -32 25 -50.5t42 -19.5t41.5 15t23.5 47q5 33 -11 60z" />
    <glyph glyph-name="colon" unicode=":" horiz-adv-x="221" 
d="M15.5 237.5q5.5 5.5 100.5 3.5l95 -2v-197l-89 -3q-89 -2 -100.5 7.5t-11.5 97.5t5.5 93.5zM22 513q6 9 97 7l92 -3v-188l-90 -3q-89 -2 -96 5q-7 6 -8 89t5 93z" />
    <glyph glyph-name="semicolon" unicode=";" horiz-adv-x="226" 
d="M16 238q6 5 100 3l95 -2l5 -235l-25 -36q-43 -61 -124 -75q-21 -3 -30 -1t-15 10q-31 43 19 69q48 25 50 47q2 20 -34 20q-27 0 -37 10q-8 8 -10 95t6 95zM22 510q3 7 21.5 9t75.5 1l92 -3l2 -87l1.5 -34.5t-1.5 -24.5t-2.5 -18.5t-6.5 -12t-9.5 -8t-15 -3.5t-19.5 -2.5
t-27 -0.5q-52 -1 -90 -4q-14 -1 -17 8q-3 11 -6 79q-3 89 2 101zM83 362q5 -3 11.5 2t9 11t-1.5 10q-5 3 -12 -1.5t-9 -11t2 -10.5zM182 353q0 5 -3.5 9t-8.5 4t-8.5 -4t-3.5 -9t3.5 -8.5t8.5 -3.5t8.5 3.5t3.5 8.5z" />
    <glyph glyph-name="less" unicode="&#x3c;" horiz-adv-x="462" 
d="M163 456q11 0 88.5 32.5t91.5 32.5q10 0 47 17q16 8 24 11t16.5 3t11 -3.5t5 -16.5t2.5 -26.5v-41.5v-86l-53 -14q-37 -10 -79 -19t-56.5 -13t-16.5 -9q-4 -7 -28 -7q-26 0 -23 -7q2 -8 37 -17l219 -54l3 -86q3 -96 -14 -97q-4 0 -11 5q-6 5 -21 10.5t-50.5 17.5
t-65.5 23t-85 29.5t-97 34t-68 27.5l-25 12l-5 184l27 11q106 47 126 47z" />
    <glyph glyph-name="equal" unicode="=" horiz-adv-x="462" 
d="M11 216l4 76l428 -4l6 -74q6 -73 2 -80q-4 -6 -220.5 -6.5t-219.5 6.5q-3 6 0 82zM17 527q2 6 44.5 8t170.5 1l211 -2v-156h-426l-2 69q-3 69 2 80z" />
    <glyph glyph-name="greater" unicode="&#x3e;" horiz-adv-x="467" 
d="M16 544q2 11 17 9t29.5 -9t32 -15t24.5 -8q5 0 19 -5.5t37 -15t42 -15.5q60 -19 115 -40.5t73 -25.5q26 -5 36 -15.5t13 -35.5t2 -87l-1 -63l-45 -20q-45 -21 -58 -21q-9 0 -41 -14.5t-49 -18.5q-25 -6 -119 -41q-98 -36 -110 -37q-18 -1 -20 19q-1 5 1 64l2 89l29 7
q11 2 42 11t58 15t51 10q70 8 70 26q0 5 -46 16.5t-104 25.5t-75 21l-29 12l-1 60q-2 83 5 102z" />
    <glyph glyph-name="question" unicode="?" horiz-adv-x="472" 
d="M128.5 196.5q5.5 5.5 96.5 3.5l90 -2v-148l-192 -5v73q0 73 5.5 78.5zM192 670q71 12 140.5 -15t109.5 -82q13 -18 16.5 -34t3 -57.5t-4 -58t-17.5 -38.5q-18 -27 -52.5 -52t-60.5 -30q-20 -5 -29.5 -14.5t-11.5 -29.5q-3 -15 -11 -17.5t-49.5 -2.5t-50 3t-12.5 18
q-6 22 -9 78l-3 56l43 8q34 7 56.5 22t38.5 17q21 2 22 10q-1 8 -15 7q-6 0 -12.5 4.5t-9.5 12.5q-8 17 -34.5 20t-52.5 -10t-35.5 -13t-31.5 -17q-16 -12 -27 -11.5t-11 13.5q0 5 -37 61.5t-35 63.5q7 20 66.5 48.5t115.5 39.5z" />
    <glyph glyph-name="at" unicode="@" horiz-adv-x="787" 
d="M272 604q140 52 287 -10q65 -28 96.5 -53.5t72.5 -84.5q40 -59 47.5 -135.5t-18.5 -145t-79 -104.5q-24 -17 -40.5 -21t-61.5 -4q-49 0 -62 4t-40 30l-37 33l-30 -29q-54 -52 -125 -35t-107 91q-41 82 -9 170q15 43 35 73.5t36 45t38 22t33 8.5t29 1h6q41 0 54 -3.5
t29 -19.5l24 -23l33 44l146 -23l-3 -53q-1 -30 -9.5 -73t-15 -74.5t-8.5 -61.5t10.5 -46t41.5 -16q24 0 46.5 22.5t35.5 59.5q17 49 10.5 121.5t-32.5 121.5q-15 29 -63.5 70.5t-88.5 60.5q-31 14 -54.5 18t-86.5 4q-61 1 -86 -2.5t-53.5 -15.5t-42.5 -18.5t-25 -12.5
t-24 -12q-19 -9 -61 -62.5t-46 -75.5q-2 -6 -10 -35.5t-12 -48.5t-6.5 -54.5t2.5 -65.5t19.5 -69.5t39.5 -77.5q24 -37 55 -62t86 -52q32 -16 54.5 -19.5t100.5 -3.5q77 0 101.5 3.5t58.5 18.5q20 9 31 13t18.5 4.5t10 -3t2.5 -11.5q0 -13 -44 -31t-100 -28
q-65 -11 -133 -2.5t-124 35.5q-40 19 -94 64.5t-54 59.5q0 11 -12 21q-17 14 -35.5 80.5t-18.5 112.5q0 48 16 106.5t37 88.5q3 4 9 13q21 30 33.5 45.5t36 38t55.5 40t75 33.5zM428 294q-5 14 -12.5 18t-27.5 4q-21 0 -29.5 -4.5t-20.5 -22.5q-15 -25 -16 -42t12 -36
q10 -14 30 -17t39 8q17 8 25.5 39.5t-0.5 52.5z" />
    <glyph glyph-name="A" unicode="A" horiz-adv-x="721" 
d="M129 384q0 5 16.5 41t16.5 43q0 5 6 19t20.5 45.5t27.5 62.5l45 107l198 -4l15 -29q18 -34 41.5 -87.5t23.5 -60t49 -123t49 -128.5q0 -8 17 -36t18 -50q2 -16 -1.5 -22t-15.5 -9q-19 -5 -17 -12q2 -9 31 -8q23 1 32.5 -6t9.5 -26q0 -9 -14.5 -11.5t-71.5 -2.5
q-86 0 -86 8t17 8q16 0 32.5 8.5t16.5 16.5q0 3 -4 4t-13.5 0t-25 -3t-39.5 -6q-19 -3 -27 0.5t-21 19.5l-19 26h-96q-57 0 -80 -3.5t-33.5 -14t-17.5 -36.5l-6 -24l-98 -2q-105 -3 -113 6q-4 5 1 15q42 87 42 98q0 7 16.5 36.5t17 39t20.5 53t20 47.5zM404 338
q-4 25 -22 63t-24 38q-3 0 -8.5 -10.5t-15 -34.5t-13.5 -35q-15 -35 -9 -43t48 -8h50zM187 415q0 8 -8.5 8t-8.5 -8t8.5 -8t8.5 8z" />
    <glyph glyph-name="B" unicode="B" horiz-adv-x="588" 
d="M328 99.5q0 8.5 4.5 10.5t9 -1.5t4.5 -8.5t-4.5 -9t-9 -2t-4.5 10.5zM391 230q6 5 11.5 3.5t25.5 -16.5q22 -15 16.5 -23.5t-32.5 -3.5q-19 4 -25 16t4 24zM12 691q4 11 162 10q176 0 248.5 -14.5t105.5 -56.5q16 -19 20 -34t5 -54q0 -40 -3.5 -54t-19.5 -33
q-24 -28 -48 -38q-21 -9 -18 -20q1 -7 14 -7q10 0 34 -17t40.5 -40t5.5 -37q-9 -11 7 -14q9 -3 11.5 -11t1.5 -32q-1 -36 -9.5 -45t-31.5 -1q-33 13 -40 1q-4 -4 3 -12q7 -9 24.5 -7.5t21.5 -5.5q5 -10 -18 -29.5t-40 -19.5q-16 0 -27 -17q-10 -16 -34.5 -17t-30.5 15
q-4 11 -11 21t-11.5 14t-3.5 9t11 12q16 12 23 10.5t4 -16.5q-2 -17 8 -21q5 -2 8 1t3 8q0 13 10 13t30 16l20 16l-32 33q-13 14 -25 22t-20.5 10t-16 2t-12.5 -3t-9 -5.5t-6.5 -5t-3.5 -1.5t-1 5q0 10 8 10t8 24q0 28 -22 39t-83 11h-68l5 -86l45 -7q37 -5 52 -13.5
t23 -8.5q15 0 19.5 -10t-6.5 -21q-12 -13 -3 -27q14 -23 1 -21q-11 1 -28 21q-9 12 -18 19t-11 4q-5 -5 4.5 -18t0.5 -25q-10 -12 -7 -26q2 -11 -10.5 -16.5t-26 -1.5t-16.5 14q-5 18 -31 18t-30 16q-4 14 -9.5 15.5t-16.5 -8.5q-5 -6 -2 -10.5t19 -12.5q47 -23 19 -29
q-18 -4 -73 -4q-87 0 -87 11q-1 4 9 10q8 5 -4 18.5t-11 119.5l2 106l26 13q37 19 21 23q-7 2 -21 1l-26 -3l-2 147q-3 147 1 158zM353 508q-6 15 -16.5 18.5t-57.5 3.5q-54 0 -65 -7.5t-7 -39.5q2 -17 10 -20.5t54 -5.5q40 -1 53.5 1.5t22.5 11.5q9 10 10 17.5t-4 20.5z
M120 399q6 11 -3 11q-5 1 -16 -1q-19 -3 -19 -11q0 -5 8 -6.5t17 0.5t13 7zM425 279q3 3 -0.5 9t-8.5 8t-9 -3q-4 -6 4 -13t14 -1zM552 226q6 6 -10 26l-15 19l-10 -23q-9 -23 -9 -31q2 -3 9.5 -3.5t18 3.5t16.5 9zM131 235q0 5 -7.5 7t-16.5 0t-13 -8q-5 -9 -1 -13
q5 -5 21.5 1t16.5 13zM86 192q-24 11 -27.5 8.5t8.5 -22.5q10 -15 24 -11q32 8 -5 25zM222 185q0 8 -4 8q-6 0 -9 -10q-3 -6 4 -6q9 0 9 8zM123 131.5q0 5.5 -3.5 9t-9.5 3.5q-13 0 -9 -11q2 -8 12 -12q5 -1 7.5 2t2.5 8.5z" />
    <glyph glyph-name="C" unicode="C" horiz-adv-x="617" 
d="M290 92q24 12 52 8.5t28 -18.5q0 -12 -49 -12q-50 0 -48 9q1 5 17 13zM403 103q23 18 61 17q21 -2 19 -11q-3 -10 -38 -21t-49 -6q-4 2 -6 3.5t-1.5 4t4 5.5t10.5 8zM419 264q-8 4 -3.5 12t12.5 3q4 -3 4 -8t-4 -7.5t-9 0.5zM276 701q200 22 297 -97q28 -34 32.5 -50
t-11.5 -22q-10 -3 -35 -19t-33 -16q-9 0 -36 -21q-25 -19 -34.5 -19t-28.5 20q-33 35 -73.5 43t-74.5 -12.5t-50 -64.5q-15 -41 -15 -59q0 -11 -3 -14t-13 0q-13 4 -15.5 -2t8.5 -16q9 -9 3 -18q-7 -13 -19 -8.5t-22 22.5q-10 20 -23.5 32.5t-19.5 6.5q-3 -3 3.5 -12.5
t13 -17.5t3.5 -9l-16 -2q-7 -1 -7.5 -13.5t-7.5 -21.5q-8 -9 -5.5 -17t11.5 -8.5t21 5.5q18 11 21 2t17 -9t23 9q8 7 27.5 -1t56 -23t71.5 -18q33 -3 40.5 -6.5t6.5 -14.5q-2 -18 30.5 -41.5t43.5 -12.5q7 6 4.5 10.5t-8.5 6.5t-10 9t-1 18q6 19 8 21t28 -15.5t40 -30.5
q11 -10 14 -10q13 0 -20 38q-32 37 -36 47q-1 5 -3 7.5t-4 3.5t-3 0q-6 -5 -17 4t-11 20q0 20 27 5q8 -4 16 -10q21 -16 35 -16q28 0 53 -34q23 -32 5 -42l-2 -2q-5 -2 -7.5 -6.5t-0.5 -9.5q4 -12 -7.5 -19.5t-34 -10.5t-46.5 -4.5t-47 -4t-32 -7.5q-11 -6 -22 1.5t-11 20.5
q0 5 -4.5 8t-10.5 3q-16 0 -26 12.5t-61.5 12.5t-55 10t-10.5 4q-8 -7 -0.5 -19t19.5 -12t54 -11.5t69 -22.5q23 -9 11 -17q-7 -6 -24 -6q-20 1 -51 -2.5t-53.5 -6.5t-41 -2t-22.5 8q-7 11 -15 6q-6 -4 -31 17t-25 31q0 6 -32 44q-45 55 -21 67q5 2 13 3t14 6t7 11
q2 9 -3.5 12t-21.5 3q-19 0 -24.5 4t-9.5 21q-11 60 7 126q24 88 96.5 151.5t158.5 73.5zM174 251q-6 0 -12 2.5t-9.5 5.5t-6.5 5t-5 0t-5 -8q-9 -24 10 -35t43 5q11 6 5.5 15.5t-20.5 9.5zM288 235q0 5 -5.5 7t-12.5 0t-11 -8q-5 -9 -1 -13t17 2t13 12zM369 227
q-7 5 -16.5 6.5t-16.5 0t-7 -6.5q0 -7 21 -12.5t27 -0.5q5 5 -8 13z" />
    <glyph glyph-name="D" unicode="D" horiz-adv-x="615" 
d="M176 309q11 16 29 -5q11 -14 3.5 -21t-20.5 5q-16 14 -12 21zM18 691q11 14 156.5 10t206.5 -20q81 -21 136.5 -70t76.5 -118q13 -41 8.5 -55.5t-30.5 -15.5q-26 0 -49 -17.5t-15 -30.5q5 -8 8 -8t11 10q11 15 43 13q23 -2 28 -6.5t7 -23.5q2 -21 -8 -39.5t-9 -36.5
q2 -23 -23 -60q-14 -22 -25 -30t-26.5 -9.5t-21 -6t-7.5 -15.5q-3 -18 -39 -36t-47 -7q-14 14 -25 8q-5 -4 -3 -11q4 -10 -2 -15t-27.5 -8.5t-61 -4t-101.5 0.5l-167 2l1 49q2 125 25 142q14 10 69.5 7.5t67.5 -13.5q9 -9 23 -9q16 0 15 -8t-16 -16q-22 -12 -15 -21
q3 -4 11 -4t12 5t5.5 11t7.5 11t18 5q72 2 91.5 6.5t36.5 25.5q20 23 29.5 24.5t32.5 -14.5q23 -17 36 -12t13 11.5t-12.5 11.5t-8.5 27t19 33q20 16 -5 26q-10 4 -27 5q-14 1 -20 4t-7.5 8.5t-8.5 20.5t-19 32q-14 20 -27.5 29.5t-43.5 18.5q-49 15 -73 13q-18 -2 -22 -10
t-7 -50t-7 -50.5t-22 -11.5q-16 -3 -17 -4q-2 -2 2 -4q3 -1 10 -3q16 -6 17 -12.5t-13 -18.5q-19 -16 -77.5 -23.5t-68.5 -15.5q-3 -3 -6 -4.5t-5 -1t-3 2.5q-10 61 -12.5 213.5t7.5 163.5zM574 300q0 8 -13 8q-12 0 -8 -8t13 -8q8 0 8 8zM515 238q-16 10 -25.5 11t-29.5 -7
q-13 -5 -21.5 -4.5t-9.5 2t-7 -5.5q-7 -11 12 -14q14 -2 28 5q12 5 18 4.5t12 -7.5q5 -6 15 -9.5t18 -2t8 7.5q0 7 -18 20zM393 231q-15 18 -27 6q-14 -14 8 -22q14 -6 20.5 0t-1.5 16zM90 215q0 8 -10 12.5t-21 0.5q-20 -7 -3 -16q20 -10 31 -3q3 2 3 6zM238 218
q0 8 -8.5 8t-8.5 -8t8.5 -8t8.5 8zM307 202q-2 13 -4.5 17t-5.5 1.5t-9 -11.5q-9 -15 -8 -19.5t15 -4.5q9 0 11.5 4t0.5 13zM343 178q8 3 2 14q-6 13 -13 1q-5 -8 -1.5 -13t12.5 -2zM106 182q0 1 -2 1.5t-6.5 0.5t-12 -1.5t-18.5 -3.5q-17 -3 -18 -15q0 -12 16 -12
q10 0 25.5 11.5t15.5 18.5z" />
    <glyph glyph-name="E" unicode="E" horiz-adv-x="549" 
d="M16 697q6 6 244 4t255 -8q12 -4 14.5 -17t1.5 -66v-76l-312 -9v-65l295 -8l1 -45q1 -38 -4 -54l-5 -16q0 -8 -20 -8q-11 0 -15 3t-3.5 7t-2.5 8.5t-10.5 7.5t-19 10.5t-18 11.5t-6.5 0q0 -3 -0.5 -11t-1 -10.5t-2.5 -8t-5.5 -7t-10 -5t-16 -4.5t-23 -3t-31.5 -2.5
t-42 -0.5q-55 0 -60 -9q-5 -8 -27.5 -7.5t-31.5 8.5q-9 9 -14 0q-4 -6 5.5 -11.5t23 -10t25 -12t11.5 -17.5q0 -4 -5 -8.5t-11 -5.5q-18 -3 -24.5 -11t1.5 -16q9 -9 34 6q17 11 23 11t17 -10q16 -14 26 -14q6 0 6 -5t-2.5 -11.5t-0.5 -11.5t12 -5t19 -6t12 -8.5t13 4.5
q9 9 -8 17q-15 9 -28.5 22.5t-13.5 19.5q0 4 21.5 5.5t42.5 -1t20 -9.5q-2 -10 13.5 -19t27.5 -4q5 2 7.5 7.5t1.5 11.5q-3 8 2.5 10.5t24.5 2.5q30 -1 57.5 -12.5t25.5 -23.5q-2 -7 -36.5 -16t-85.5 -21t-80 -25q-43 -20 -51 -20t-8 -9q0 -6 4 -7t12.5 1.5t19 6t27.5 7.5
t34 6q36 2 46 10q15 12 45.5 13.5t49.5 -8.5q31 -16 36 -37q2 -10 -6 -13q-10 -4 -264 -1l-254 2v65q0 39 3 53.5t11 20.5q14 7 19 0.5t12 -13t16 -0.5q8 7 8 14t-9.5 13.5t-24.5 7.5q-15 2 -21.5 6.5t-7.5 14.5q-3 19 8 19q6 0 6 2t-6 8q-9 9 -9.5 34.5t8.5 34.5t-4 19
t-13 79q0 60 13 75t69 20q45 5 70 16l24 10l-30 3q-26 3 -79.5 -10t-57.5 -13q-7 0 -8.5 60t5.5 67zM242.5 384q-3.5 6 -23.5 6t-20 -16q0 -7 -3 -12.5t-5.5 -8l-4.5 -4.5t0 -4.5t8 -5.5q8 -5 15 -1.5t18 17.5q19 23 15.5 29zM107 368q-3 7 -12.5 10.5t-18.5 1.5t-9 -10
q0 -13 22 -13q10 0 14.5 3t3.5 8zM305 348q0 8 -13 13q-6 2 -8.5 0.5t-1.5 -5.5q4 -12 17 -14q6 -1 6 6zM108 193.5q0 8.5 -8 8.5t-8 -8.5t8 -8.5t8 8.5zM204 164q7 6 -10 16q-19 10 -20 -3q0 -8 12.5 -13.5t17.5 0.5zM251.5 120.5q-4.5 7.5 -11.5 7.5q-9 0 -12 -8t3 -12
q8 -5 16.5 0t4 12.5z" />
    <glyph glyph-name="F" unicode="F" horiz-adv-x="535" 
d="M362 284q-17 0 -20 8q-2 5 5 7q4 1 11 1q20 0 20 -8t-16 -8zM296 292q0 8 8.5 8t8.5 -8t-8.5 -8t-8.5 8zM13 691q14 12 238 10t246 -6q17 -4 21.5 -11t5.5 -34q3 -40 -10 -54q-9 -14 -7.5 -16t7 -11.5t3.5 -23.5q-2 -13 -9.5 -16.5t-36.5 -5.5q-43 -3 -43 4t32 22
q35 17 33 25q-1 5 -12 5q-12 0 -27 -7l-51 -26q-37 -19 -114 -24q-56 -3 -67.5 -6.5t-14.5 -18.5q-5 -21 -35 -36q-32 -16 -30 -24q1 -7 26 -2q21 4 166 4t152 -4q6 -4 4 -76l-1 -71l-22 -3q-13 -1 -19 2.5t-3 9t15 9.5q13 3 16 9.5t-7 12.5q-7 5 -27 -12
q-14 -11 -21.5 -11.5t-13.5 4t-28 9t-56 2.5q-37 -2 -46 -5t-7 -14q1 -10 -4 -14t-21 -5l-26 -2l-9 -189h-98q-89 0 -96 7q-2 3 -2 9.5t3 11.5t7 5q9 0 9 8t-8 6q-3 -1 -5 2t-2 7q0 13 -3 26.5t-4 19.5t2 11t14 7q21 3 22 14q1 9 -17 7q-12 -1 -15.5 4t-5.5 25q-1 17 2 29.5
t6.5 16.5t4.5 9.5t-5 9.5q-7 8 -8.5 30t4.5 28q5 5 11.5 1t11 -14.5t4.5 -22.5q0 -13 5.5 -20.5t20.5 -14.5q26 -13 33 -13q11 0 -9 37q-11 23 -23 32q-18 14 -16.5 20.5t25.5 13.5q11 3 18 7.5t6 8.5q-3 11 -68 2l-20 -2l-3 131q-2 130 2 141zM318 385q-4 12 -14 11.5
t-13 -13.5q-4 -17 -13 -17q-4 0 -5 -2q-1 -1 0 -3q4 -3 15.5 1.5t21.5 11.5t8 11zM255 349q0 8 -7 8q-9 0 -13 -8q-1 -7 8 -8q12 0 12 8zM254 303q3 3 -0.5 9.5t-8.5 8.5t-9 -3q-5 -7 3.5 -13.5t14.5 -1.5zM105 267q-18 0 -37 6q-12 3 -15 1t-1 -11q2 -14 36.5 -23t41.5 -15
q8 -6 11.5 -5.5t8.5 7.5q7 11 -9.5 25.5t-35.5 14.5zM173 210q0 8 -8 8t-8 -8t8 -8t8 8z" />
    <glyph glyph-name="G" unicode="G" horiz-adv-x="632" 
d="M587 333q8 14 25 5q15 -7 5 -16l-2 -2q-7 -3 -14.5 -2t-12 5.5t-1.5 9.5zM447 285q0 17 -6 28t-6 24q0 8 -4 14t-8 8.5t-13.5 6t-13.5 4.5q-10 5 -10 -16t-15 -21.5t-29 19.5q-8 12 -9.5 37t3.5 48q1 2 142 2h142v-41q0 -25 -2.5 -33t-11.5 -8q-6 0 -14 -7t-13 -16
q-10 -20 -4.5 -29.5t28.5 -13.5q19 -4 19 -18.5t-19 -21.5q-11 -4 -15 -10.5t1 -10.5t17 -2q10 2 14.5 -7t0.5 -20t-14 -13q-15 -4 -16 -12q0 -7 13 -7q14 0 8 -13q-4 -8 -15 -14q-13 -8 -42 6q-20 9 -26 15.5t-2.5 10.5t8.5 8t4 10t-12 14q-18 13 -18 27.5t-31 21.5
q-20 5 -25.5 10.5t-5.5 19.5zM520 377q-23 9 -24 3q-1 -4 8 -10q16 -13 23 -13q11 0 5 11q-3 6 -12 9zM59 546q4 0 25 -24.5t34 -24.5q6 0 12 -5t8 -12q2 -10 13 -14.5t20.5 -1t9.5 13.5q0 11 -39.5 51.5t-50.5 40.5q-23 0 13 39q44 47 97 71q25 12 70 18.5t98 6t109 -17
t94 -48.5l30 -26l-109 -129l-43 23q-36 18 -70 22t-57.5 -2.5t-43 -18.5t-29 -22t-12.5 -16q-9 -14 -23 -14q-11 0 -18.5 -10t-7.5 -23q0 -4 4.5 -6.5t9 -3.5t7 -2.5t-0.5 -4t-14 -6.5q-22 -10 -22 -26q0 -30 23 -7q16 16 19 -16q1 -3 1 -7q1 -16 -2.5 -19.5t-20.5 -3.5
q-24 0 -46 6q-20 5 -19 -1v-4q5 -11 28.5 -20.5t35.5 -5.5q9 4 17.5 -4t19.5 -8q12 0 34 -20.5t30 -20.5q6 0 31.5 -13.5t54.5 -12.5q20 0 31.5 -4.5t25.5 -18.5q24 -24 24 -34q0 -9 24 -24.5t38 -15.5q11 0 11 -7q0 -10 -18 -17q-22 -9 -73.5 -17.5t-81.5 -8.5
q-41 0 -103 13t-82 26q-36 23 -60 44.5t-24 31.5q0 9 -8.5 19.5t-15.5 18.5t-4 12q4 7 -11 15q-17 8 -31 62t-11 98q3 35 21 85.5t28 50.5zM79 366q12 0 8 8t-13 8q-8 0 -8 -8t13 -8zM148 349q0 8 -2.5 8t-13.5 -8q-6 -4 -7 -5.5t0.5 -2t8.5 -0.5q14 0 14 8zM136 234
q10 -16 31 2q16 12 9 17q-7 2 -17 0t-18 -8t-5 -11zM248 233q-35 17 -37 14q-1 -2 13 -16q23 -21 36 -21q19 0 7 12q-6 5 -19 11zM300 190q-22 16 -27 11t14 -26q15 -16 21.5 -5.5t-8.5 20.5zM353 111.5q0 8.5 -8 8.5t-8 -8.5t8 -8.5t8 8.5z" />
    <glyph glyph-name="H" unicode="H" horiz-adv-x="619" 
d="M20 696q12 5 74.5 5t89.5 -5l31 -5l-3 -215h187l-6 215l26 5q26 5 77 5t82 -5l31 -5l-2 -189q-1 -190 -9.5 -200.5t1.5 -20.5q12 -12 8.5 -26.5t-21.5 -21.5q-17 -8 -17 -9.5t13 -3.5q16 -3 22.5 -13.5t0.5 -25.5q-4 -12 -25 -4q-22 8 -20.5 -0.5t23.5 -19.5
q17 -9 21 -16.5t2 -26.5l-2 -30l-94 2q-94 2 -99 5t-7 66q-2 52 7.5 63t41.5 -5q26 -13 37 -4t11 14t-27 15t-50 13q-20 3 -19 12.5t22 9.5q42 0 12 25q-9 8 -8 21t-8 23q-13 13 -29 12.5t-17 -13.5q-1 -14 -2 -26q0 -10 -27 -11.5t-63.5 1t-74.5 -1.5q-20 -2 -45.5 0.5
t-35 5t-16.5 -1.5q-5 -7 3.5 -17t16.5 -7t18.5 0t15.5 -5t11 4q10 16 17 2q3 -7 3 -19q0 -16 -3 -19.5t-17 -0.5q-24 6 -43 -8q-10 -8 -3 -15q8 -8 34 2q29 12 39 -5t7 -73l-3 -57h-98q-88 0 -95 7q-2 3 -2 9q0 16 20 21l20 5l-17 16q-26 25 -23 48q2 18 21 6q4 -2 8 -6
q16 -14 20 -10q5 5 -10 31t-27 33q-11 6 -13.5 39t-2.5 185q0 126 2 172.5t8 48.5zM157 374q0 -13 -16.5 -25t-16.5 -17q0 -7 14 2q12 8 16 5q3 -3 16 5.5t27 19t18 10.5q8 0 8 8t-33 8q-20 0 -26.5 -3t-6.5 -13zM493 361.5q0 12.5 -8 12.5t-8 -12.5t8 -12.5t8 12.5z
M312 347q-12 13 -49 11q-23 -2 -22 -10q4 -11 42 -12q31 -1 32 4q0 3 -3 7zM592 333q0 8 -12.5 8t-12.5 -8t12.5 -8t12.5 8zM575 285q9 -2 8 5q-3 11 -15 17q-8 3 -8 -4q2 -13 15 -18zM518 177q0 7 -12 16q-8 6 -10.5 5.5t-2.5 -7.5q0 -12 12.5 -16.5t12.5 2.5zM144 162
q13 -3 12 5q-1 11 -16 16q-1 1 -3 1q-12 2 -11 -5q1 -11 15 -16q2 -1 3 -1zM474 120q22 0 1 32q-16 21 -23 21q-5 -32 3 -43q7 -10 19 -10z" />
    <glyph glyph-name="I" unicode="I" horiz-adv-x="226" 
d="M159 325q15 3 25 6t13 5t6 1.5t7 -5.5q9 -8 -6 -33q-10 -18 -10 -23t10.5 -13t10 -10.5t-10.5 -6.5q-13 -5 -13.5 -15.5t11.5 -20.5q10 -8 13 -60t-6 -57q-7 -4 -101 -7q-84 -2 -92 4q-3 3 -5 12q-2 18 10.5 18t12.5 8t-9 8q-5 0 -4.5 6.5t1.5 15t-6 17.5q-6 7 -3 13
t18 19q24 20 15 24t-25 16q-11 8 -11 11.5t10 14.5q15 15 59 15q28 0 38.5 4.5t8.5 10t5 12.5t28 10zM165 235.5q0 7.5 -7 7.5t-13 -8.5t-1.5 -13t13 1t8.5 13zM67 177q0 8 -12.5 8t-12.5 -8t12.5 -8t12.5 8zM14 694q6 8 101 6l96 -2v-328h-22q-18 0 -38 -14.5t-39 -18.5
q-24 -5 -48.5 -15.5t-35 -15.5t-13.5 0q-4 7 -4.5 194t3.5 194zM82 405q1 4 -1.5 7t-8.5 3t-9.5 -4t-3.5 -9q0 -13 11 -10q8 3 12 13zM54 361q-27 10 -25 0q0 -1 1 -3q3 -4 12.5 -8t16.5 -4.5t8 3.5q0 7 -13 12z" />
    <glyph glyph-name="J" unicode="J" horiz-adv-x="488" 
d="M101 250q21 18 34 14.5t43 -35.5q22 -24 28 -35.5t3 -23.5q-10 -42 -33 -42q-11 0 -6 -8q6 -11 -6 -22t-30 -11t-42 16.5t-28 16.5q-8 0 -31 22t-23 29q0 9 15 19.5t28 10.5q14 1 14 -7t19 -11.5t26 2.5q8 8 -6 8q-7 0 -14 8.5t-6 22.5t15 26zM150 226q11 0 2 10
q-5 7 -12 7q-10 0 -2 -10q6 -7 12 -7zM108 148q8 5 4 14q-5 10 -9 5q-3 -3 -3 -11q0 -5 2.5 -7.5t5.5 -0.5zM231 134q0 6 20.5 22t20.5 27q0 10 20 34.5t25 34.5q6 12 14.5 15.5t33.5 2.5q38 -1 38 6.5t-19.5 7.5t-29.5 12q-7 8 -5 14t13 19q12 11 19 13.5t16 -2.5
q6 -4 8 -4.5t5 -2t4.5 0.5t2.5 3t4.5 6t5.5 8q7 10 5.5 13.5t-15.5 9.5q-18 6 -20.5 17.5t11.5 22.5q14 13 25.5 41t9.5 47q-1 14 -7.5 20.5t-13.5 2.5t-9 -17t-18 -31.5t-16 -28.5q0 -15 -13 -24.5t-26 -5.5q-15 5 -21 -8q-6 -12 7 -17t11.5 -16.5t-16.5 -19.5
q-16 -9 -16 -24q0 -10 -2.5 -20.5t-9 -26.5t-8.5 -21q-5 -15 -12.5 -10t1.5 27q7 18 7 212t4 199q4 7 64.5 8t96.5 -5q23 -4 27 -9.5t4 -35.5q0 -25 -6 -43t-11.5 -24.5t-5.5 -12t9 -12.5t11.5 -22.5t2.5 -55.5q0 -46 -2.5 -57.5t-13.5 -14.5q-17 -4 -17 -11.5t17 -7.5
q12 0 16 -14.5t-6 -20.5q-6 -4 -3.5 -45.5t-7.5 -55.5q-11 -13 -11 -44q-2 -55 -65.5 -97.5t-143.5 -42.5q-27 0 -34.5 7.5t-0.5 17t16.5 21.5t9.5 18zM346 226q0 8 -8 8t-8 -8t8 -8t8 8z" />
    <glyph glyph-name="K" unicode="K" horiz-adv-x="623" 
d="M12 689q2 6 79.5 8t111.5 -2q10 -2 12 -113l3 -112l24 35q25 34 85 110q39 51 54.5 64.5t35.5 16.5q38 6 115.5 3t79.5 -10q2 -5 -23.5 -37.5t-56 -68.5t-35.5 -44q-14 -22 -42 -57t-40 -44q-9 -8 -11 -10.5t0.5 -5t7.5 -4t12.5 -8.5t13.5 -19q11 -21 29 -52l34 -62
q5 -8 35.5 -54.5t53.5 -85t20 -44.5q-4 -6 -113 -6q-38 0 -57 0.5t-35.5 2.5t-23.5 7t-12 11.5t-11 19.5q-4 11 -25.5 45.5t-36.5 62.5q-18 33 -28.5 35t-33.5 -25q-20 -23 -24 -37t-4 -59v-64l-191 5l-4 295q-3 294 1 303zM353 431q0 8 -8 8t-8 -8t8 -8t8 8z" />
    <glyph glyph-name="L" unicode="L" horiz-adv-x="515" 
d="M12 689q2 5 70 7.5t119 -1.5q11 -1 13 -21t0 -94q-2 -126 -1 -233l1 -80l291 -4l-2 -78q-2 -78 -6 -88q-2 -6 -52 -7.5t-191 -0.5l-239 2l-4 152q-3 135 5 154q7 13 30 15q19 1 44 2.5t38.5 2t27.5 2t19.5 4.5t5.5 8q0 8 -84 10l-84 2l-2 118q-3 119 1 128z" />
    <glyph glyph-name="M" unicode="M" horiz-adv-x="711" 
d="M13 573l5 120h192l24 -30q25 -32 60 -95t44 -70q8 -7 15 -4t22 20q20 23 25 36t17 25q13 12 36.5 57t32.5 52q11 10 109 8l97 -3v-73q0 -73 -11 -76q-5 -2 -6 0.5t2 9.5q3 11 -1.5 11t-15.5 -2t-23 9q-10 9 -15 9t-15 -9q-15 -14 -24 -14t-18 -11q-16 -21 24 -26
q15 -1 49 -2q52 -1 58 -7q9 -9 2 -36t-19 -30q-15 -4 -15 -10.5t15 -10.5q11 -3 13 -18q3 -20 2 -149l-2 -163h-189l-2 135q-3 135 -10 142q-2 2 -9.5 -5.5t-19 -23t-24.5 -36.5q-6 -7 -15 -22q-63 -97 -74 -105q-9 -5 -18 12l-3 6l-3 6q-27 53 -49.5 86.5t-33.5 47.5
t-16 27q-12 31 -18 -18q-4 -36 -6 -117l-2 -135h-189l-1 118q-1 117 4 159q4 30 11 36q12 10 101 10h74q100 -1 268.5 2t174.5 9q11 11 -16 15q-40 6 -295 4q-307 -3 -316 2.5t-3 126.5zM573 570q0 6 -11 8t-26 -1t-25 -8q-16 -10 -52 -12q-21 -1 -36 -7t-18.5 -14t3.5 -18
q7 -9 14 -8.5t17.5 4.5t32.5 -1q16 -4 21.5 -3t5.5 8q0 5 3.5 8.5t8.5 3.5t9 4.5t4 11.5q0 9 5 12.5t19 3.5q25 0 25 8z" />
    <glyph glyph-name="N" unicode="N" horiz-adv-x="631" 
d="M152 96q-2 3 4 5q8 2 21 2q27 0 25 -5q-3 -7 -29 -8q-17 -1 -21 6zM457 267q6 0 27 20.5t29 20.5t14 5.5t8.5 10.5t8.5 4t15 -11q16 -17 23 -17q9 0 12 8t-4 12q-8 5 -3 13q5 9 17 -1q10 -10 3 -21t-2 -14q8 -5 12.5 -62.5t0.5 -99.5l-5 -48h-32q-36 0 -38 12q0 4 7 8
q9 6 7.5 13.5t-12.5 7.5q-4 0 -8.5 -5.5t-5.5 -13.5q-1 -12 -9 -15t-40 -3q-35 0 -45 5t-33 31q-59 71 -60 84q0 4 52 30t61 26zM599 251q0 8 -4 8q-6 0 -9 -10q-2 -6 4 -6q9 0 9 8zM507 113q-6 18 -19 10q-12 -7 -7 -15q3 -5 12 -5q7 0 11 3t3 7zM330 234q-7 0 -55.5 57.5
t-52.5 57.5q-9 0 -13 -39t0 -78q2 -28 0.5 -50.5t-7 -36t-12.5 -11.5q-6 1 -26.5 -6.5t-50.5 -9.5q-24 -1 -34 -6.5t-9 -11.5t-4.5 -9.5t-21.5 -1.5q-17 1 -21 9.5t-10 48.5q-5 40 -1.5 66t6.5 29t-4 21q-6 12 -3 212t10 211q5 7 90 7h85l23 -29q49 -63 93 -113t61 -69.5
t22 -31.5q17 -46 24 24q3 31 6 114q2 85 6 96q4 10 92 8l88 -3l5 -114q6 -115 -3 -125q-6 -9 -1.5 -16.5t8.5 -13.5t-10 -22t-68 -49t-65 -33t-32 -16q-15 -12 -20 -12t-16 9.5t-13 8.5t-2 -15q0 -15 -24 -36t-40 -21z" />
    <glyph glyph-name="O" unicode="O" horiz-adv-x="679" 
d="M255 702q20 6 90 7q43 1 64.5 -3t48.5 -16q65 -30 116.5 -79.5t76.5 -105.5q15 -33 17.5 -105t-9.5 -112q-9 -28 -68.5 -94t-75.5 -66q-13 0 -21 -15q-9 -16 -76 -30t-112 -8q-47 5 -79.5 14.5t-44.5 18t-21 14.5t-16 6q-16 0 -55 45t-57 84t-21 59.5t-1 82.5l3 86l40 60
q40 61 66 81q23 19 68 44t67 32zM383 521q-85 30 -149 -47q-17 -21 -20 -33.5t-2 -49.5q4 -73 38.5 -104.5t103.5 -25.5q114 10 114 139q0 26 -5.5 39.5t-24.5 36.5q-13 15 -29 28t-26 17zM181 447.5q0 8.5 -20.5 8.5t-20.5 -8.5t20.5 -8.5t20.5 8.5z" />
    <glyph glyph-name="P" unicode="P" horiz-adv-x="564" 
d="M12 429q3 15 23.5 4.5t25.5 -2.5t70 7q47 -1 58 -4.5t20 -19.5q12 -24 34 -24q32 1 61.5 10.5t37.5 21.5t25 14.5t84 2.5q85 0 95 -9q8 -8 -10 -42q-12 -24 -12 -32q0 -7 -24 -31.5t-30 -24.5q-3 0 -8 -4t-15.5 -10.5t-28 -13.5t-53.5 -14t-85 -11l-66 -6l-3 -69
q-4 -69 -12.5 -77.5t-97.5 -5.5l-90 2l-1 164q-1 164 2 174zM189 325q25 0 9 19q-17 21 -34 21q-9 0 -9 -10q0 -11 10.5 -20.5t23.5 -9.5zM483 472q0 8 8 8t8 -8t-8 -8t-8 8zM526 510q-1 28 7 26q11 -3 19 -33q5 -18 1 -28q-7 -19 -18 0q-7 13 -9 35zM13 695q4 7 166.5 2.5
t204.5 -13.5q34 -7 51.5 -16.5t46.5 -37.5q33 -31 37 -38.5t-8 -14.5q-16 -11 -32 -11q-12 0 -15.5 -8t-6.5 -22t-11 -23q-7 -8 -12 -21t-12 -20.5t-24 -11.5q-32 -6 -36 8q-3 8 10 18q17 12 4.5 9.5t-43.5 21.5q-20 15 -33.5 19t-40.5 3q-26 -1 -37.5 -6t-22.5 -18.5
t-12 -18.5t4 -9t5 -11q0 -8 -45 -12.5t-90 -2t-45 10.5q0 7 36 12q29 4 34.5 10t-3 12.5t-17 18t-5.5 22.5q3 9 -0.5 11.5t-17.5 1.5l-23 -2l-6 66q-5 65 -1 71zM412 534q-11 11 -14.5 11.5t-9.5 -8.5q-5 -7 7.5 -19.5t23.5 -12.5q13 0 2 17q-3 6 -9 12z" />
    <glyph glyph-name="Q" unicode="Q" horiz-adv-x="689" 
d="M217 688q59 24 125 21t125 -24.5t106.5 -63.5t70.5 -95q17 -40 10 -46q-4 -5 -37.5 -7t-64.5 -4t-31 -5q0 -1 7.5 -7t28 -11t54.5 2q46 8 56 -3.5t7 -69.5q-3 -42 -10.5 -68.5t-31.5 -78.5q-6 -13 -2.5 -20.5t21.5 -22.5l28 -24l-25 -31q-10 -13 -18 -22t-15 -15.5
t-11 -11t-9.5 -5.5t-7.5 -1.5t-7.5 2t-7.5 4.5t-8.5 7.5t-10.5 8.5q-23 19 -31.5 22t-18.5 -4q-15 -11 -58.5 -23.5t-85.5 -16.5q-40 -5 -103 7t-85 28q-21 15 -39 21q-19 6 -64.5 65t-54.5 90q-9 30 -9 92.5t8 103.5q12 59 70.5 119.5t128.5 86.5zM392 509q-26 12 -57 12
q-22 0 -50.5 -13t-37.5 -26q-5 -8 -54 -14q-51 -6 -48 -15q1 -5 27 -5t33.5 -10.5t4.5 -41.5q-4 -60 47 -114q19 -21 30.5 -26t37.5 -5q38 0 43.5 5.5t-23.5 30.5l-30 25l38 43q38 43 46.5 43t32.5 -20q25 -22 33 -14t3 49q-5 38 -21 58.5t-55 37.5z" />
    <glyph glyph-name="R" unicode="R" horiz-adv-x="601" 
d="M369 227q0 13 12.5 21t12.5 13q-7 5 -46 5t-92 -6t-70 -13q-24 -10 -26.5 -14t9.5 -12q15 -11 26 -11q7 0 8.5 -12.5t0.5 -47.5l-3 -59h-188l-3 47q-1 25 2 43.5t6 23.5t4 13t-5 12q-8 10 -6 209l2 200l39 12q39 12 39 19q0 5 -10 6.5t-21 -0.5t-14 -7q-5 -7 -14 -8.5
t-16 3t-6 11.5q3 14 38 17.5t56 -7.5q9 -5 16.5 -5.5t14 1.5t23 5.5t35.5 6.5q40 5 99 2.5t110 -10.5q49 -8 89.5 -32t60.5 -56q17 -27 24.5 -58.5t-2.5 -37.5q-8 -5 -98 -8q-65 -2 -81 0.5t-30 16.5q-13 13 -26.5 16.5t-55.5 3.5q-25 0 -37 -0.5t-19.5 -4.5t-8.5 -7
t-5 -13.5t-8 -18.5q-5 -14 -4 -16.5t6.5 -13.5t7.5 -25q2 -15 11 -17.5t56 -2.5t59 3.5t28 22.5q7 9 12.5 14t11 8t16 4t19.5 1t31.5 0.5t43.5 1.5q64 3 71 -6q11 -13 -10 -70t-37 -58q-6 0 -34 -24l-28 -24l22 -25q22 -26 22 -33q0 -5 41 -68t41 -66q0 -5 -106 -5h-107
l-20 27q-16 21 -21.5 34.5t-24.5 36.5q-24 28 -15 39q10 11 33 10.5t23 -12.5t8 -12t8 17zM146 229q-3 8 -10.5 9.5t-18 -3t-21.5 -9.5t-23 -9.5t-20 -3.5q-14 1 -18 -13q-1 -13 14 -15q9 0 16.5 -5.5t11 -11.5t6.5 -9.5t5.5 0.5t5.5 18t9.5 21.5t20.5 12.5q10 4 16.5 9
t5.5 9z" />
    <glyph glyph-name="S" unicode="S" horiz-adv-x="595" 
d="M172 688q48 21 123 22.5t127 -16.5q22 -8 39 -12t24 -5.5t18.5 -7t29.5 -17.5q27 -18 30.5 -24.5t-5.5 -22.5q-9 -18 -27.5 -37t-18.5 -27q0 -23 -37 -26t-90 15q-47 16 -87 16q-24 0 -34.5 -4t-18.5 -16q-13 -20 -8 -28q3 -5 28.5 -10t84 -18t121.5 -35q13 -5 1 -16
q-10 -8 -23 -8q-6 0 -10 -4t-4 -9q0 -13 35 -10q22 2 22 -3q-1 -3 -4 -7q-14 -17 -2 -19q8 -1 22 6q41 22 64 -22q26 -48 5 -117q-6 -18 -14 -33q-32 -62 -94 -90.5t-161 -27.5q-83 1 -156.5 22.5t-117.5 58.5l-24 19l47 59q46 58 53 58t59 -26q36 -18 56.5 -22.5t73.5 -4.5
q55 0 67 2.5t14 14.5q2 17 -13.5 27.5t-56.5 19.5q-126 28 -186 59t-80 79q-6 15 -5 22t10 18q11 11 11 14t-9 7q-16 6 -13 34t22 61q20 35 42 52.5t70 38.5zM144 497.5q0 7.5 -28.5 7.5t-32.5 -7q-2 -4 1.5 -7t9.5 -5q15 -4 32.5 0t17.5 11.5zM217 497q0 8 -24.5 8
t-24.5 -8t24.5 -8t24.5 8zM417.5 431.5q-4.5 7.5 -16 7.5t-16.5 -8q-3 -5 2 -9.5t12.5 -5.5t13.5 2q9 6 4.5 13.5z" />
    <glyph glyph-name="T" unicode="T" horiz-adv-x="585" 
d="M27 693q15 5 273 3.5t267 -7.5q8 -5 8 -39v-35l-96 -14q-50 -7 -100.5 -12.5t-72 -8t-29.5 -7.5q-12 -6 1 -9q6 -2 23 -4q35 -2 39.5 -0.5t36.5 7t79 8.5q77 5 91 7q13 1 21.5 -13t3.5 -27q-4 -11 -19 -12t-27.5 3t-19.5 -2q-4 -4 -50.5 -6.5t-48.5 -4.5q-3 -3 -10 -216
l-7 -213h-188l-4 430h-42q-26 0 -34.5 3.5t-11.5 14.5t-11.5 13.5t-39.5 0.5l-46 -3l-2 68q-2 48 0.5 58.5t15.5 16.5zM157 554q0 8 -12.5 8t-12.5 -8t12.5 -8t12.5 8zM214 554q0 8 -12 8t-12 -8t12 -8t12 8z" />
    <glyph glyph-name="U" unicode="U" horiz-adv-x="624" 
d="M272 41q0 11 3.5 12.5t8.5 -7.5q5 -7 -4 -12q-3 -2 -5.5 0t-2.5 7zM513 102q6 9 14 5q9 -5 0 -14q-8 -8 -13.5 -4t-0.5 13zM338 201.5q0 8.5 8 8.5t8 -8.5t-8 -8.5t-8 8.5zM406 336q4 11 34.5 12.5t66 -4t66 -12.5t35.5 -12q11 -11 3 -63.5t-24 -76.5q-20 -28 -20 -35.5
t-7.5 -8t-12.5 6.5q-5 9 -56.5 4t-62.5 -15q-11 -9 -20 -4.5t-15 11t-6 9.5q0 9 14.5 19t24.5 7q14 -4 35 7q14 8 14 10q0 3 -54 5q-24 1 -29.5 7.5t5.5 21.5q11 16 8.5 57t0.5 54zM421 252q4 -12 11.5 -9t3.5 10q-2 3 -8 5q-4 2 -6 0t-1 -6zM567 229q0 5 -10 5.5t-22 -3
t-17 -9.5q-10 -12 -21 -12q-5 0 -8.5 -4t-3.5 -8q0 -10 13 -12.5t29 2.5t25 16q15 18 15 25zM19 408q6 2 64.5 -6t104.5 -17q19 -3 23 -11.5t8 -54.5q6 -61 2 -65q-5 -3 -13.5 -1.5t-16 6.5t-4.5 9q4 7 -4.5 7t-8.5 -12.5t-9 -28.5q-6 -11 -10 -11.5t-17.5 8t-18 8
t-10.5 -11.5q-13 -25 -8 -32q2 -2 5 1q6 6 23 -10q16 -15 38 -21t27 3q6 9 39 8.5t49 -9.5q17 -10 21 -1q3 8 32.5 5.5t39.5 -11.5q5 -5 -1 -15t-18 -17.5t-20 -5.5q-7 2 -13.5 -0.5t-8.5 -7t2 -8.5q6 -7 63 -8.5t61 4.5q6 10 13.5 8.5t24.5 -16.5q15 -13 15.5 -16.5
t-11.5 -11.5q-30 -23 -110 -34q-22 -3 -32.5 -0.5t-22.5 14.5q-14 13 -27.5 17t-21.5 5.5t-12 10.5q-2 4 -14.5 26.5t-15.5 32.5q-3 8 -9.5 11.5t-12 1t-5.5 -10.5q0 -5 3.5 -8.5t7.5 -3.5q8 0 8 -4.5t-6 -18.5q-14 -32 -22 -41.5t-19 -5.5q-13 6 -10 11q1 2 -4 4
q-7 2 -18 3q-24 0 -56 32.5t-32 56.5q0 20 9 20q4 0 5.5 1.5t-0.5 4.5q-4 4 0.5 13t10 17.5t1.5 15t-23 6.5q-21 0 -32.5 27t-11.5 78q0 57 9 60zM369 66q-6 6 -22 8.5t-20 -0.5q-15 -16 15 -22q20 -4 28 6q3 4 -1 8zM414.5 650q4.5 7 93 6.5t100.5 -7.5q8 -5 6 -146
l-2 -142l-20 3q-171 17 -177 26q-4 8 -4.5 130.5t4 129.5zM35 653q23 6 95 2.5t80 -11.5q9 -9 9 -114v-105l-33 -4q-27 -2 -69.5 8t-57.5 10q-31 0 -40 23t-7 97q2 79 9 87q3 4 14 7z" />
    <glyph glyph-name="V" unicode="V" horiz-adv-x="694" 
d="M85 435q0 9 -20.5 50t-20.5 52q0 9 -10 27t-18 40t-5 43q1 6 108 4l108 -3l12 -37q26 -77 94 -263q6 -16 10.5 -20t8.5 2.5t9 25.5q13 44 29 82t23.5 56t7.5 29q0 9 6 25t18 43.5t17 38.5l9 22h106q107 0 107 -8t-13 -41.5t-30.5 -75t-21.5 -55.5q-11 -29 -27 -70
l-29 -73q-9 -26 -22 -44.5t-13 -32.5q0 -13 -15.5 -50.5t-35.5 -83.5t-26 -66q-3 -10 -20.5 -12t-84.5 -1l-101 3l-13 28q-14 29 -32 74l-34 80q-15 35 -15 45q0 9 -33 81t-33 85z" />
    <glyph glyph-name="W" unicode="W" horiz-adv-x="976" 
d="M854 293q0 -10 -16.5 -48.5t-16.5 -51.5t-16.5 -57t-21.5 -65q-6 -26 -26 -33t-89 -7h-2q-14 -1 -19.5 -1t-15.5 0.5t-13 1t-9.5 3t-8.5 3.5t-6.5 6t-5.5 8t-5 11.5t-6 13.5t-6 18q-19 54 -38 97q-15 35 -15 55q0 14 -13 41.5t-20 27.5q-6 0 -23 -37t-24 -65
q-10 -42 -45 -133q-1 -2 -3 -7q-7 -20 -14.5 -27.5t-35 -12t-84.5 -1.5q-39 2 -48 6t-19 24q-26 54 -43.5 128t-27.5 97q-24 51 -39.5 105t-24.5 76q-8 18 -16.5 53t-16.5 50q-11 22 -11 55v32l93 1q93 1 102 -10q7 -9 32.5 -94.5t31.5 -112.5q17 -69 33 -66q5 0 8 10
q2 7 12.5 34.5t17 48t6.5 30.5t2 15t5 9t9 18.5t12 37.5q5 21 6.5 27.5t7 19.5t6.5 15t10 8.5t12 6.5t18.5 2t23.5 2h32q86 0 89 -10q0 -3 13 -47.5t29 -95t22 -56.5q6 -8 6 -22t10 -35t16 -21q3 0 5.5 9t9 34.5t15.5 50.5q34 98 56 183q2 7 21 8t78 -2q97 -6 102 -10
q7 -4 1 -32t-20 -54q-15 -31 -15 -46q0 -10 -16.5 -47t-16.5 -53t-20.5 -64t-20.5 -58z" />
    <glyph glyph-name="X" unicode="X" horiz-adv-x="643" 
d="M94 190q0 7 16.5 24t16.5 21q0 7 37 60l38 53l-33 54q-20 32 -37 58.5t-29 43t-21.5 29.5t-15.5 20t-10.5 12t-6.5 7t-3 4t-1 4q0 5 -16.5 32t-12.5 37q3 8 24 10t88 0l107 -2l29 -54q25 -46 41.5 -65t25.5 -13q6 3 14 16t23.5 40.5t24.5 42.5l19 33l105 2q104 2 113 -6
q14 -14 -52.5 -93t-142.5 -137q-47 -36 -46 -51q2 -12 38 9q40 24 36 6q-1 -5 -7 -14q-6 -11 -3 -23t22 -47q14 -26 21 -42.5t7.5 -20.5t4.5 -9.5t17 -18.5q20 -21 60 -76t46 -72q4 -14 -4 -16q-12 -4 -127 -3q-82 2 -92 12q-9 9 -38.5 65t-20.5 72q15 29 4 28q-3 0 -9 -4
q-7 -6 -16.5 -9t-16 -3t-11.5 -4t-6 -13q-1 -20 -2.5 -27.5t-4.5 -11.5t-14 -19.5t-24 -39.5l-21 -41l-105 -2q-105 -3 -112 4q-5 5 16 36.5t44 64t23 37.5zM381 351q0 18 -37 -6q-8 -5 -16 -12q-27 -21 -40 -38t-8 -22q7 -7 54 29.5t47 48.5zM193 264q0 11 -8 15
q-6 4 -20 -10.5t-9 -19.5q6 -6 21.5 0t15.5 15zM250 245q0 12 -13 17q-6 3 -8.5 1t-1.5 -10q3 -15 15 -17q7 1 8 9zM286 232q5 13 3 16q-4 3 -17.5 -9.5t-13.5 -19.5q0 -12 15 -3q9 6 13 16zM308 234q10 0 1 12q-4 5 -6 5q-4 0 -4 -8.5t9 -8.5zM266 149q0 13 -8 15t-21 -7
q-16 -12 -30 -12t-14 -9q0 -8 11 -8q22 0 42 7t20 14z" />
    <glyph glyph-name="Y" unicode="Y" horiz-adv-x="680" 
d="M241 249q2 8 5 12.5t5 3.5q46 -22 146 -61l41 -15l2 -69q2 -68 -8.5 -74.5t-100.5 -4.5l-90 3l-3 93q-2 93 3 112zM11.5 652q5.5 9 112.5 7l108 -2l76 -142q21 -43 28 -47q4 -3 8.5 1t12.5 16t19 33t28 55l42 84l105 2q113 2 118 -12q3 -6 -7 -17q-9 -10 -31.5 -50
t-42 -74.5t-23.5 -37.5q-4 -2 -18.5 -28t-32 -58t-24.5 -43l-32 -47q-16 -24 -16 -44q0 -36 -63 -8q-12 5 -35 16q-56 28 -72 28q-19 0 -19 8q0 5 -20.5 13t-24.5 20q-3 8 -6.5 11.5t-8 5.5t-14.5 16.5t-24 41.5q-12 23 -22.5 40.5t-15.5 24.5t-8 12.5t-3 8.5q0 6 -5.5 11.5
t-16 18t-18.5 29.5q-29 59 -49 85q-11 13 -5.5 22z" />
    <glyph glyph-name="Z" unicode="Z" horiz-adv-x="595" 
d="M175 52q0 9 29 33t67 53t50 42q15 16 32.5 19t101.5 3q72 0 94 -2.5t25 -10.5q5 -13 6 -76v-63l-202 -2q-203 -2 -203 4zM29.5 655.5q10.5 4.5 280.5 2.5l270 -1l5 -143l-140 -156q-71 -79 -118 -126t-65.5 -60.5t-43 -33t-51.5 -47.5l-46 -46l-106 5l-5 133l160 174
q67 75 85 96.5t18 26.5q0 9 -122 9q-9 0 -24 -1h-36t-26.5 2t-20 2.5t-12 6t-8.5 9t-3.5 15t-2 20t0.5 27.5v18q0 63 10.5 67.5z" />
    <glyph glyph-name="bracketleft" unicode="[" horiz-adv-x="338" 
d="M15.5 647q5.5 5 158.5 3l152 -2v-114l-140 -9v-483l140 -8l2 -49q2 -48 -7 -57q-7 -7 -119.5 -10.5t-157.5 1.5l-34 5v359q0 359 5.5 364z" />
    <glyph glyph-name="backslash" unicode="\" horiz-adv-x="545" 
d="M465 77q0 -4 20.5 -39.5t20.5 -43.5q0 -7 9.5 -21t16 -25.5t1.5 -17.5q-10 -10 -77.5 -6t-73.5 15q-1 2 -34 69t-73 148.5t-52 106.5l-100 209q-39 80 -64 133.5t-33.5 71.5t-12.5 26q-7 13 -1.5 18.5t75.5 3.5l70 -3l67 -135q31 -62 49 -101t21 -48t6.5 -16.5
t12.5 -21.5q20 -30 20 -41q0 -8 16.5 -32.5t16.5 -32.5q0 -11 17 -42q18 -33 50 -101.5t32 -73.5z" />
    <glyph glyph-name="bracketright" unicode="]" horiz-adv-x="343" 
d="M14 642q4 11 155 11t158 -11q6 -10 6 -367l-1 -356l-126 -1q-126 -1 -161 3l-35 4v113h73q74 0 80 9.5t4.5 243t-7.5 239.5q-7 7 -76 9l-70 3l-2 44q-3 44 2 56z" />
    <glyph glyph-name="a" unicode="a" horiz-adv-x="506" 
d="M129 460q0 1 -8.5 21t-5.5 29q3 7 27.5 9t94.5 2q85 0 108 -3t55 -19q44 -23 70 -61l26 -39l-2 -349l-49 -2q-34 -2 -45 1.5t-31 22.5q-16 15 -25.5 19t-13.5 0.5t-12.5 -8t-19.5 -4.5t-31 -16t-49 -23.5t-60 -6.5t-61 10.5t-51.5 30t-31 52t0.5 74.5q10 42 21 60.5
t37 35.5q22 14 41.5 17t88.5 3q67 0 82.5 2.5t15.5 12.5q0 15 -11 30q-13 17 -71.5 23t-92.5 -6t-42 -3q-7 7 -17.5 41t-11.5 50q0 13 11.5 13.5t21.5 -11.5q5 -5 15 -9t18 -4t8 5zM265 258q-46 26 -53 26q-11 0 -14 -10t5 -20q10 -12 1 -33q-9 -19 -9 -38.5t9 -28.5
q11 -11 45 -10t43 12q11 12 15 44q3 24 -2.5 31.5t-39.5 26.5zM465 259q0 8 -12.5 8t-12.5 -8t12.5 -8t12.5 8zM457 229q13 9 9 10q-2 1 -17 2q-27 1 -25 -9q0 -5 8 -10t25 7z" />
    <glyph glyph-name="b" unicode="b" horiz-adv-x="551" 
d="M494 382q-10 0 -40.5 -16.5t-43.5 -16.5q-14 0 -25.5 -6t-22.5 -6t-34 13q-34 17 -53 12q-23 -5 -46.5 -27.5t-23.5 -39.5t-12 -24t-23 4q-5 5 -14.5 7.5t-16.5 0.5t-7 -8q0 -8 8 -8q19 0 -7 -20q-21 -17 -52 -30q-18 -8 -14 -17q3 -8 18 -3q13 5 35 8t35 7.5t18 14.5
q9 16 21.5 14.5t23.5 -19.5q12 -17 40 -27.5t47 -4.5t42 21q14 10 18 19.5t4 32.5q0 25 5.5 34t29.5 25q22 15 64.5 29.5t65.5 14.5q7 0 7 -20q0 -12 -7 -18t-29 -13q-39 -11 -36.5 -25.5t43.5 -14.5q39 0 15 -27q-10 -11 -10 -14.5t11 -11.5q15 -11 12.5 -37t-22.5 -60
q-32 -54 -88.5 -78.5t-118.5 -10.5q-42 10 -62 26q-38 30 -46 0q-3 -11 -17 -13.5t-74 -2.5q-86 0 -92 10q-7 11 -9.5 313.5t4.5 306.5q8 5 97 4h89l2 -98q2 -98 6.5 -109t38.5 19q25 22 39 25.5t66 3.5q49 0 64.5 -4t42.5 -23q34 -26 51.5 -56t5.5 -44q-10 -12 -23 -12z
M439 309q-11 16 -28 -5q-9 -10 -5 -19.5t17 -9.5q9 0 15 13t1 21z" />
    <glyph glyph-name="c" unicode="c" horiz-adv-x="486" 
d="M182 513.5q8 6.5 44 10.5t84 -2.5t76 -24.5q31 -21 55 -43t24 -29.5t-17 -22.5q-10 -9 -16 -9.5t-10 4t-17.5 13t-33.5 14.5q-29 8 -29 16q0 11 -17 7q-18 -5 -13 -20q1 -4 5 -9q8 -12 6 -15t-8 -11t-6 -18q0 -7 -8.5 -10t-31.5 -3q-26 0 -37 -4.5t-28 -21.5
q-25 -27 -30 -27q-14 0 21 39q25 28 22 31q-6 6 -33 4.5t-47 -9.5q-29 -10 -40 -13q-6 -1 -8 -18.5t1.5 -34t9.5 -15.5q8 1 6 12q-4 17 10 16q11 -1 27 -16q25 -20 37 -20t18 -27q9 -46 45.5 -59.5t71.5 16.5q25 20 29 20q6 0 66 -35.5t64 -41.5q12 -17 -39.5 -61t-99.5 -56
q-87 -23 -161.5 3.5t-128.5 98.5q-25 33 -30 48t-5 62q0 45 3 57.5t15 21.5q17 11 19 22q0 3 -2 3t-7 -3q-13 -8 -12 10q0 13 9 32q14 30 48 62t61 41q30 9 38 15.5zM258 479q-17 17 -27 1q-6 -9 0.5 -16.5t20 -7.5t15.5 6t-9 17z" />
    <glyph glyph-name="d" unicode="d" horiz-adv-x="568" 
d="M360 680q6 6 83.5 5t94.5 -8l20 -7l-2 -167q-2 -101 -5 -138.5t-11 -52.5q-10 -18 -9.5 -23t13 -14.5t14 -25.5t-1.5 -88q-5 -101 -9.5 -108t-90.5 -7h-85l5 22q4 17 61 78t57 70q0 8 7 18.5t12.5 18.5t1.5 11q-5 6 -77 -71q-88 -96 -119.5 -122t-67.5 -34
q-65 -15 -119.5 12.5t-90.5 93.5q-22 39 -26.5 57.5t-4.5 70.5q0 47 4 69t17 50q21 45 43 68q14 15 20 16.5t14 -6.5q13 -12 24.5 -3.5t12.5 29.5q0 14 6 20t12.5 2t8.5 -17q3 -19 21 -20q35 -2 58 1t30.5 8t13 8.5t10 2t15.5 -10.5q20 -16 27 -11.5t7 101.5t6 102zM325 350
q-29 10 -46 11t-36 -8q-27 -12 -37 -42t0 -62t36.5 -48t44.5 -14.5t42 21.5q17 14 22 25t6 31q1 73 -32 86z" />
    <glyph glyph-name="e" unicode="e" horiz-adv-x="493" 
d="M56 193q21 17 32.5 20.5t43.5 -0.5q25 -3 41 -9.5t23 -13.5l14 -14t22.5 -11t41.5 -4q48 0 69 16t30 16q12 0 49.5 -31t37.5 -41q0 -14 -32 -41.5t-64 -40.5q-43 -18 -105.5 -18t-100.5 17q-80 37 -114 96l-19 33zM460 267q0 8 8 8t8 -8t-8 -8t-8 8zM292 259q-6 0 -9 10
q-3 6 4 6q9 0 9 -8t-4 -8zM320 275.5q0 8.5 8.5 8.5t8.5 -8.5t-8.5 -8.5t-8.5 8.5zM216 281q45 11 46 7q1 -1 1 -4q0 -7 -22 -16t-40 -9q-19 0 -19 6q0 8 34 16zM90 291q12 8 18 3t-1 -18t-32 -11.5t-25 15.5q0 8 6 8.5t15 -1.5t19 4zM314 347q-4 12 53 48t70 36q9 0 28 -40
t18 -55q-2 -15 -10.5 -18.5t-46.5 -6.5q-55 -4 -82 11.5t-30 24.5zM161 508q53 20 125.5 10t111.5 -42q17 -13 19 -18t-7 -13q-12 -12 -60 -38q-34 -19 -46 -21.5t-35 4.5q-25 8 -33.5 5t-33.5 -29q-24 -23 -37 -28.5t-54 -8.5q-81 -5 -95.5 8t16.5 62q22 34 59 65.5
t70 43.5z" />
    <glyph glyph-name="f" unicode="f" horiz-adv-x="387" 
d="M94 210q15 6 85.5 3t77.5 -10q5 -5 8 -87l2 -82l-191 -5v87q0 61 2.5 75t15.5 19zM219 679q25 3 74.5 -1t66.5 -10q13 -4 15.5 -14t1.5 -48l-2 -56h-42q-31 -1 -50.5 -10t-15.5 -22q3 -9 55 -13l53 -4l1 -59q2 -59 -8 -67.5t-51 -10.5q-26 -2 -33.5 -6t-11.5 -17
q-5 -21 -23 -29q-32 -14 0 -23q17 -5 13 -15q-3 -11 -88 -11t-88 10q-2 5 4 7t26.5 4t34.5 4q18 3 30.5 0.5t16 -6.5t9 -5t10.5 5q18 18 -26 26q-17 3 -43 5q-48 3 -59.5 8t-14.5 24q-3 16 -31 21q-25 3 -30 19.5t1 75.5q4 37 8 44.5t23 9.5q18 2 23 9t12 41q11 54 42.5 80
t96.5 34z" />
    <glyph glyph-name="g" unicode="g" horiz-adv-x="560" 
d="M427 250q94 9 104 5q6 -3 11 -16q9 -24 7.5 -78t-11.5 -79q-13 -30 -13 -43q0 -19 -80 -94q-28 -27 -109.5 -36.5t-169 1.5t-132.5 38q-19 12 -21 16.5t8 15.5q13 14 13 22q0 9 13 35t19 30q8 4 23 -3q62 -33 120.5 -40.5t90.5 13.5q22 13 39 43t11 44q-3 8 -10.5 5.5
t-31.5 -19.5q-26 -18 -41 -22t-61 -4q-43 0 -60.5 4.5t-43.5 21.5q-22 14 -43.5 39t-31 47t-0.5 28q8 5 151.5 7t158.5 6q20 6 90 13zM359 311q7 8 17 5t10 -12q0 -5 -3.5 -8.5t-7.5 -3.5q-11 0 -16.5 7t0.5 12zM13 357q5 8 13 4q9 -5 0 -14q-7 -8 -13 -4t0 14zM51 319
q2 6 5 22q11 64 25 65q9 1 22 -18q15 -24 18 -47t-9 -28q-16 -6 -7 -15q6 -6 19 -6q19 0 17 -5q-3 -10 -40 -13q-39 -4 -48 4t-2 41zM356 489l-5 32h95q96 0 96 -10q-1 -20 -23.5 -34t-33.5 -1q-7 8 -22 8t-58 -8q-19 -4 -18 -12t20 -8q15 0 17.5 -3t-1.5 -14.5t-4 -19.5
q0 -9 -23 -9.5t-31 7.5q-9 9 -34 4q-23 -4 -11 -15q5 -5 14 -9q22 -11 27 -29q3 -11 -8 -11t-38 23t-27 32.5t16.5 16.5t19.5 15q4 12 21 12q11 0 13 5t-2 28zM127 512q30 9 84.5 8t79.5 -11q29 -12 30 -31q2 -14 -18 -14q-17 0 -21 -16q-3 -13 -21.5 -16.5t-25.5 7.5
q-10 10 -31 11t-42.5 -9.5t-21.5 -23.5q0 -14 -14 -10q-10 4 -14 16t-13 13t-18.5 -2t-22.5 5q-8 5 -5 11.5t20 24.5q28 28 54 37z" />
    <glyph glyph-name="h" unicode="h" horiz-adv-x="527" 
d="M359 464q13 0 24 3.5t15 5.5t8.5 -0.5t10.5 -13.5q11 -20 18.5 -20t7.5 -11q0 -22 19 -17q14 3 14 12q0 4 -5 6q-11 4 -10.5 15.5t11.5 11.5q5 0 8.5 -3t3.5 -6q0 -9 16.5 -30t16.5 -68q0 -30 -3.5 -41t-14.5 -19q-13 -8 -13.5 -11.5t8.5 -11.5q9 -7 12 -26.5t3 -74.5
q2 -90 1 -109q-1 -13 -10 -16q-12 -3 -83 -1l-92 3l-5 137q-3 88 -7 115.5t-13 38.5q-13 14 -34.5 16t-37.5 -10q-18 -13 -24 -83.5t-7 -138t-6 -72.5q-7 -8 -93 -6l-85 3l-2 169q-2 172 9 172q3 0 8 -13q4 -10 13 -9.5t19.5 6.5t23 9t23.5 -2q17 -9 24.5 -7.5t10.5 15.5
q4 15 24.5 16.5t25.5 -12.5q6 -15 19 -12t19 20q7 19 18 21q6 -1 7 -8q0 -14 18 -6q10 4 19 14q15 16 25 16q4 0 8 5t6 12q4 16 28 16zM419 489q-8 0 -13 8q0 7 8 8q13 0 13 -8t-8 -8zM305 514q7 4 27 6t37 0.5t17 -6.5q0 -6 -42 -11.5t-47 -0.5q-4 4 8 12zM12 666.5
q4 10.5 77 9.5h13h32.5t23 -2t18 -3t11.5 -7t8 -10t3.5 -16.5t2.5 -21t1 -28.5v-13q4 -88 -1 -96q-4 -6 -11.5 -0.5t-16 12t-22.5 -0.5q-12 -7 -26.5 -2t-30.5 0q-19 -8 -50 -1l-31 6l-2 82q-3 81 1 91.5z" />
    <glyph glyph-name="i" unicode="i" horiz-adv-x="224" 
d="M24 173q5 0 11.5 5.5t11.5 12t11.5 12.5t11 6.5t9.5 -7.5q7 -10 32 -11t50 8q32 11 39 2q8 -11 8 -97q0 -52 -7.5 -59.5t-97.5 -9.5l-89 -1v69q0 70 10 70zM10 284q0 41 8 41t8 -9t16 -4q9 3 11.5 -1.5t2.5 -22.5q-1 -23 -13.5 -40t-23.5 -10q-9 5 -9 46zM129 382
q4 13 17 14.5t17 -11.5q3 -7 -13.5 -18.5t-22.5 -6.5q-4 4 2 22zM92 402q13 16 15 6q2 -11 -10 -16q-3 -2 -7 -2q-8 0 2 12zM16 516q3 4 50.5 5t94 -1t46.5 -5.5t-16.5 -12t-35.5 -20.5t-24 -24q-9 -20 -28 -19q-11 1 -11 13t-19 7q-23 -5 -43 5t-20 27q0 20 6 25zM14 650
q3 13 15 16q13 3 79 3h91l8 -22q9 -22 6 -64l-2 -41h-197l-2 44q-3 45 2 64z" />
    <glyph glyph-name="j" unicode="j" horiz-adv-x="287" 
d="M81 223q1 14 15 33t20 19q2 0 30 -18t60 -39.5t38 -24.5q16 -10 19.5 -24t5.5 -81q1 -62 -1.5 -82.5t-15.5 -42.5q-22 -39 -61.5 -56t-103.5 -15l-66 2l-7 31q-8 32 -0.5 62t24.5 33q25 3 31 25.5t9 104.5q2 45 3 73zM261 234q-7 0 -36.5 20.5t-32.5 20.5
q-6 0 -37.5 26.5t-31.5 32.5t22 9q17 2 59 -0.5t56 -6.5q6 -2 9 -27t1 -50t-9 -25zM145 417q1 9 5 15.5t7 4.5q8 -2 10.5 -28.5t-3.5 -30.5t-11.5 1.5t-7.5 16t0 21.5zM107 482q0 12 11 14.5t18 -8.5q3 -6 0 -7q-1 0 -6 1q-15 4 -18 -4q-3 -7 -4 0q-1 1 -1 4zM79 663.5
q5 5.5 99 5.5q59 0 77 -2.5t21 -11.5q5 -13 -12 -27q-16 -13 -17 -19.5t12 -19.5q25 -25 -21 -37q-32 -8 -55 -3.5t-29 20.5q-4 12 -2.5 14.5t12.5 -0.5q17 -6 17 4q-1 15 -26.5 27.5t-39.5 3.5q-16 -10 -28.5 -3.5t-12.5 24.5q0 19 5 24.5z" />
    <glyph glyph-name="k" unicode="k" horiz-adv-x="524" 
d="M49 639q12 5 17.5 4t20.5 -12q10 -7 14.5 -8t7.5 1.5t15.5 5.5t33.5 2q41 0 41 -12q0 -9 -10.5 -10.5t-10.5 -10.5q0 -5 3 -8t7 -2q8 1 11 -50.5t5 -104t7 -52.5t38 39.5t43 58.5q4 7 8.5 5.5t16.5 -12.5q20 -21 37 -16.5t19 31.5l3 28l62 -6q62 -5 65 -8q8 -8 -38 -68
t-59 -60q-7 0 -7 20t-16 29q-11 6 -15 3.5t-10 -16.5q-8 -21 8 -43t12 -37q-3 -16 13.5 -40.5t16.5 -30.5q0 -11 11 -24q12 -13 48.5 -84.5t41.5 -91.5l5 -21h-193l-22 33q-23 34 -23 44t-11 23.5t-19 13.5q-14 0 -28.5 -23.5t-16.5 -49.5l-2 -37h-189l1 119q1 119 4 278
q3 144 9 155q3 5 13 4q18 0 18 6.5t-8 6.5q-6 0 -8 6t1 12.5t9 9.5z" />
    <glyph glyph-name="l" unicode="l" horiz-adv-x="216" 
d="M21 667q1 3 93 0l92 -2v-623l-89 -3q-89 -2 -97 6q-9 9 -8.5 69.5t9.5 77.5q6 11 5.5 19t-6.5 21q-13 33 -10 220t11 215zM116 348q7 18 -3 14q-18 -6 -41 -35q-10 -12 -7 -15q5 -5 26 10t25 26zM68 283q-7 11 -15.5 7.5t-15.5 -19.5q-12 -26 0 -32q10 -5 22 14
q14 22 9 30z" />
    <glyph glyph-name="m" unicode="m" horiz-adv-x="829" 
d="M672 281q0 7 16.5 15t16.5 17q0 23 -29 -5l-12 -12q-34 -35 -39 -23q-2 4 -2 16q0 22 -18.5 41t-38.5 19q-29 0 -38.5 -23t-13.5 -104q-6 -98 -18 -108q-10 -5 -9 -9.5t6.5 -5.5t10.5 -10t3 -23q-2 -17 -8 -21t-29 -6q-32 -2 -35 7q-1 4 7 7q3 2 9 4q15 3 16 18
q1 12 -11 12t-22 -12q-12 -16 -40.5 -27t-49.5 -9l-28 3l-2 139q-2 98 -4.5 121t-15.5 33q-15 13 -34 13.5t-35 -10.5q-11 -8 -14 -32.5t-6 -121.5l-4 -142h-188l-3 229q-2 230 2.5 240.5t96.5 8.5q64 -2 78.5 -5t16.5 -14q4 -29 9.5 -32t22.5 13q24 22 50 30.5t66 8.5
q73 0 115 -44q19 -20 27 -19.5t32 21.5q30 25 55.5 33.5t69.5 8.5q45 0 69 -10t54 -42q23 -24 32 -48t11.5 -67.5t0.5 -143.5l-2 -168h-189l-5 181l25 24q25 23 25 34z" />
    <glyph glyph-name="n" unicode="n" horiz-adv-x="526" 
d="M14 514q5 8 97 6l91 -3l3 -27q2 -23 12.5 -25t26.5 16q26 29 83.5 38t100.5 -9q30 -13 47 -30t27 -53.5t12.5 -88t1.5 -140.5l-2 -156h-189v117q1 104 7 118q4 7 23 21q7 5 14 11q13 11 1 14q-9 1 -25 -7q-11 -6 -18.5 -4t-21.5 16q-21 21 -43 21t-39 -21
q-10 -13 -13.5 -28.5t-3.5 -45.5v-52l-51 -42q-21 -18 -33.5 -29.5t-19.5 -19.5t-6.5 -12.5t4.5 -7.5q5 -4 50 27.5t50 28.5q8 -4 4 -55l-3 -50l-71 -3q-71 -2 -71 6.5t12 8.5q5 0 8.5 3.5t3.5 8.5q0 16 -11 17.5t-26 -12.5q-19 -19 -27 -14q-6 4 -8.5 225.5t3.5 231.5z" />
    <glyph glyph-name="o" unicode="o" horiz-adv-x="549" 
d="M176 463q31 11 53.5 14t62.5 1q52 -3 88 -16t77 -45q51 -39 71.5 -109t2.5 -142q-18 -66 -68.5 -112t-114 -62.5t-134.5 -3t-127 59.5q-40 34 -56.5 70.5t-19.5 101.5q-2 48 1 66.5t16 46.5q21 42 61 77t87 53zM331 286q-14 13 -26.5 17.5t-35.5 4.5q-24 0 -33.5 -4
t-18.5 -17q-13 -21 -19 -57q-4 -25 -0.5 -34.5t24.5 -29.5q21 -22 45 -27t43 4.5t31.5 33t12.5 55.5q0 18 -5 29.5t-18 24.5z" />
    <glyph glyph-name="p" unicode="p" horiz-adv-x="559" 
d="M311 28q0 -9 5 -14t11 -6.5t11.5 -6t5.5 -10.5q0 -17 -39 -6q-30 9 -52 27q-31 25 -36 20t-5 -89q0 -52 -2.5 -69t-10.5 -20q-12 -5 -76 -5t-88 5l-25 5v305q0 304 6 308t93.5 2.5t94.5 -6.5q8 -5 8 -25t4 -20q3 0 22.5 14t44 26.5t63 16t80.5 -17.5q38 -18 59 -39.5
t43 -65.5q14 -28 17.5 -49t3.5 -74q0 -81 -16 -118q-27 -61 -74 -99.5t-71 -19.5q-17 15 -47 64t-30 63q0 6 11 18.5t23.5 26t20.5 33.5t2 40q-13 46 -41 61.5t-79 2.5q-31 -7 -44.5 0.5t-18.5 34.5q-5 25 -23.5 49.5t-31.5 24.5q-12 0 -17 -5t-4 -13.5t3.5 -17t7 -20.5
t5.5 -18q4 -16 29.5 -57t25.5 -50t32.5 -55t32.5 -54t33 -46.5t33 -50.5z" />
    <glyph glyph-name="q" unicode="q" horiz-adv-x="565" 
d="M365 104q20 0 64.5 8t78.5 13.5t38 1.5q7 -7 9 -135q1 -82 -1 -106t-10 -27t-66 -4t-105 1q-13 1 -16 12t-3 80q0 56 -2 73t-10 17q-13 0 -18 -13q-5 -14 -43 -29.5t-68 -15.5q-27 0 -67 16.5t-44 29.5q-1 4 3.5 7t15.5 7t22.5 7.5t30 9.5t33.5 12q97 34 158 35zM134 460
q37 23 77 20t67.5 -15.5t49 -27t22.5 -14.5q3 0 6 22l2 23h196v-107q-1 -135 -3 -168.5t-11 -35.5q-5 -1 -107.5 -12.5t-123.5 -20.5q-17 -8 -77 -23t-70 -23q-9 -8 -57 -10l-48 -2l-40 80q-7 15 -7 85q0 46 4 66.5t21 54.5q20 43 40 64.5t59 43.5zM317 308q-49 19 -83.5 -5
t-34.5 -76q0 -23 5 -34.5t24 -29.5q20 -19 30 -23t30 0q29 6 47 23q19 17 23.5 48.5t-7 59.5t-34.5 37z" />
    <glyph glyph-name="r" unicode="r" horiz-adv-x="370" 
d="M12 469q3 9 96 8l93 -2l3 -34q2 -30 9 -33t22 19q14 22 44 38t52 14l26 -3l2 -96q2 -67 0 -82.5t-14 -22.5q-17 -9 -25 -4q-7 5 -39 -11t-44 -30q-32 -39 -32 -150q0 -75 -8 -75q-7 0 -9 35.5t-3 74t-7 43.5t-6 23q0 13 -9.5 27t-10.5 24q-2 33 -4 42.5t-7 9.5
q-9 0 -18 -18q-8 -14 0 -33t16.5 -38t0.5 -34q-7 -10 -4.5 -22.5t8.5 -21t11 -30t3 -48.5l-4 -43l-141 5l-2 229q-2 230 1 239z" />
    <glyph glyph-name="s" unicode="s" horiz-adv-x="460" 
d="M127 462q28 12 49.5 14.5t75.5 0.5q63 -2 119 -18t63 -34q2 -6 -2 -19t-14 -35t-14 -32q-17 -46 -58 -15q-14 10 -30.5 13.5t-50.5 3.5q-60 0 -57 -12q1 -5 16 -13l18 -9l-20 -15q-25 -20 -11 -19q9 0 33 12t35 12t50 -13q54 -18 80 -39.5t36 -56.5q10 -36 1.5 -81.5
t-28.5 -67.5q-38 -40 -113.5 -53t-160.5 7q-44 10 -89 30t-45 30q0 6 30 53q16 27 25.5 36t16.5 6q35 -14 82.5 -26t69.5 -13t28.5 2t8.5 14q2 17 -17 21q-47 12 -90.5 26.5t-51.5 21.5q-12 10 -7 26q4 12 -1.5 14t-19.5 -7q-13 -8 -35 14q-15 14 -19 26.5t-4 47.5
q0 59 21.5 90t79.5 57z" />
    <glyph glyph-name="t" unicode="t" horiz-adv-x="382" 
d="M67 584q3 9 100 8l97 -1l2 -55q2 -45 11 -52.5t58 -3.5q26 1 32.5 -15.5t1.5 -71.5l-7 -64l-98 -9l-2 -73q-2 -72 8.5 -89.5t54.5 -16.5l42 2v-69q0 -51 -3.5 -61.5t-19.5 -17.5q-29 -11 -90 -13t-85 9l-22.5 9t-17 7t-11.5 7t-13 12.5t-14 21.5q-16 24 -20 47t-7 107
l-5 118l-49 9v147l25 4q17 3 21 10.5t6 39.5q2 45 5 54z" />
    <glyph glyph-name="u" unicode="u" horiz-adv-x="526" 
d="M23 98q5 6 11 4t9.5 -7t14.5 -10.5t26 -5.5q19 0 29 -8.5t30 -12.5q18 -4 39 -13t47 -16q35 -9 35 -15q0 -9 -35.5 -21.5t-60.5 -12.5q-32 0 -70.5 17.5t-58.5 41.5q-15 18 -19.5 34t3.5 25zM480 5q-42 0 -104 20.5t-70 20.5q-10 0 -21 3.5t-37 10.5t-62 14
q-50 9 -97 26.5t-63 32.5q-11 9 -13.5 36.5t-2.5 134.5q0 157 5.5 163t96.5 3l91 -2v-107q1 -121 3.5 -149t14.5 -42q35 -40 73 -6l23 20l9 284h186l3 -135q3 -135 -2 -232l-5 -96h-28z" />
    <glyph glyph-name="v" unicode="v" horiz-adv-x="579" 
d="M569 464q0 -12 -8 -20.5t-8 -20.5q0 -16 -16 -51l-76 -183q-29 -71 -67 -153l-22 -47h-81q-48 0 -66.5 2.5t-25.5 10.5q-10 12 -26.5 51.5t-30.5 79t-15 40.5q-1 2 -23 53t-45 106t-23 59q0 5 -3.5 14.5t-8.5 19t-9 19.5t-4.5 16t3.5 8q10 4 89 6.5t92 2.5q12 -1 19 -16
q9 -19 49 -138q23 -72 29 -72q8 0 32 78.5t29 104.5q7 29 30.5 37.5t97.5 8.5q61 0 74.5 -2.5t13.5 -13.5z" />
    <glyph glyph-name="w" unicode="w" horiz-adv-x="757" 
d="M31 391q0 10 -12 42.5t-8 39.5q5 7 89 7q49 0 67.5 -2.5t26.5 -11t11 -31.5q6 -33 21.5 -88t18.5 -55q5 0 14.5 21.5t9.5 32.5q0 14 19 68.5t26 60.5q8 6 74 1t75 -13q11 -9 11 -28q0 -15 16.5 -63.5t17.5 -63.5q4 -32 16 -14q7 12 14 43q11 49 25 90l13 41l82 2
q81 3 87 -4q9 -9 -5 -58.5t-35 -112t-24 -88.5q-2 -20 -7.5 -27.5t-19.5 -12.5q-21 -6 -23 -11t12 -16q8 -5 8.5 -14t-4.5 -32q-8 -37 -25 -76l-17 -38l-156 4l-19 56q-19 56 -10 61q8 5 92.5 23t90.5 24q9 8 -7 8q-10 -1 -49 -8q-62 -12 -92 -14q-34 -3 -42.5 0t-17.5 20
q-10 20 -19 18t-9 -24q0 -33 -64 -38q-12 0 -12 -2q1 -2 23 -8q33 -11 30 -22l-10 -40q-8 -34 -28.5 -44.5t-79.5 -12.5q-50 -1 -62 1.5t-19 15.5q-7 14 -10.5 52t-9.5 46q-7 10 -18 46.5t-27.5 93.5t-32.5 101q-16 41 -16 54zM261 96q0 12 -55 5q-52 -7 -49 -19q1 -1 2 -3
q7 -7 54.5 1t47.5 16z" />
    <glyph glyph-name="x" unicode="x" horiz-adv-x="530" 
d="M31 428q0 6 -11.5 18.5t-8.5 18.5q4 7 99 7q58 0 79.5 -2.5t30.5 -10.5q15 -14 14.5 -24.5t-16.5 -23.5q-17 -12 -11 -12q3 0 12 1q32 6 38 -2q3 -6 6 -7t8 3t11.5 12.5t17.5 24.5q18 27 27 34t28 7q28 0 28 -12q0 -5 4 -8.5t8.5 -3.5t8.5 2.5t4 6.5q0 5 10 4.5t20 -2
t15 4.5q5 7 32.5 8t31.5 -6q4 -6 -36 -71t-40 -70q0 -4 -14.5 -19t-19.5 -26q-5 -12 -11.5 -23t-9 -13.5t-1 -11.5t7 -18.5t19.5 -32.5q10 -16 20 -34t18.5 -32t22.5 -32q54 -72 46 -85q-4 -7 -97 -6q-70 1 -95 8t-26 25q0 13 -17.5 29.5t-26.5 13.5q-10 -4 -24.5 -33.5
t-22.5 -35.5q-8 -4 -99 -3t-96 6q-3 3 11.5 31.5t21.5 33.5q3 2 4.5 3.5t3 4.5t6 11.5t11.5 20.5t21.5 35t33.5 52q17 27 17 40.5t-18 40.5q-34 52 -38.5 63.5t4.5 19.5q13 10 11 17t-17 7t-35.5 17t-20.5 29z" />
    <glyph glyph-name="y" unicode="y" horiz-adv-x="567" 
d="M482 266q0 -12 -20.5 -57.5t-20.5 -53.5q0 -13 -65 -148q-38 -81 -111 -107.5t-172 3.5q-47 14 -58.5 22.5t-3.5 22.5q5 9 4 17.5t9 27.5q12 24 12 32q0 31 57 16q30 -8 52 -6t22 12q0 3 -3.5 11.5t-13 29.5t-16.5 40l-30 71q-9 22 -16 52.5t-12 37.5q-6 7 -23 53t-30 73
l-26 51q-11 23 -6 31.5t92 3.5q33 -2 49.5 -4.5t31 -5.5t21 -11.5t11.5 -18.5t11 -31q14 -45 38.5 -104t28.5 -59t7.5 11.5t8.5 28.5t10 25q7 13 30 87l22 74l185 5l-5 -28q-7 -30 -32 -103t-31 -79q-7 -8 -7 -22z" />
    <glyph glyph-name="z" unicode="z" horiz-adv-x="493" 
d="M26 494q3 7 47.5 8.5t180.5 0.5l224 -2l5 -122l-92 -93q-38 -38 -63.5 -67t-22.5 -31q7 -7 86 -7q48 0 63.5 -2.5t15.5 -9.5q0 -5 -6 -9.5t-15 -5.5q-56 -6 -130.5 -23.5t-74.5 -24.5q0 -8 6 -10t20.5 1.5t32.5 8t49.5 9.5t64.5 6l61 3v-99l-211 -2q-190 -2 -222 6
q-29 7 -33 32q-2 9 -2 35v51l93 94q92 94 92 96.5t-84 5.5l-84 2l-2 69q-3 69 1 80z" />
    <glyph glyph-name="braceleft" unicode="{" horiz-adv-x="217" 
d="M129 584q15 11 33.5 15.5t31.5 1t13 -13.5q0 -8 -6.5 -11t-20 -8.5t-25.5 -16.5q-15 -13 -16.5 -28t3.5 -88q6 -107 3.5 -132.5t-25.5 -53.5q-19 -24 -20.5 -30t10.5 -19.5t24.5 -39t9.5 -28.5q-3 -2 -23 -5q-13 -2 -17.5 1.5t-6.5 15.5q-2 17 -14.5 33t-24.5 16
q-9 0 -29 16l-19 16l29 12l21 9t14 11.5t9 15.5t3.5 26.5t1 37.5t-1.5 56q-3 102 4.5 136t38.5 55z" />
    <glyph glyph-name="bar" unicode="|" 
 />
    <glyph glyph-name="braceright" unicode="}" horiz-adv-x="206" 
d="M13 596q2 4 16 6.5t39 -5.5t46 -31l28 -31l-5 -135q-4 -63 -3 -95t4 -40t14 -19q19 -20 32 -20q20 0 8 -12q-7 -8 -24 -16q-16 -8 -23 -17t-10 -25q-3 -14 -6.5 -20t-7 -5.5t-11 3t-12.5 2.5q-16 0 -5 26q7 20 23 33l27 21l-27 25q-30 28 -36.5 58t-1.5 121
q4 70 2.5 92.5t-10.5 36.5q-14 21 -34 21q-16 0 -22.5 8t-0.5 18z" />
    <glyph glyph-name="asciitilde" unicode="~" horiz-adv-x="383" 
d="M282 361q15 21 17 21q13 -1 43.5 -13.5t30.5 -16.5q-3 -22 -17 -55.5t-26 -47.5q-14 -14 -25.5 -18.5t-39.5 -4.5q-30 0 -61 8.5t-48 16.5t-32.5 7t-26.5 -17q-7 -12 -15 -14t-33 4q-25 5 -31 10.5t-8 24.5q-2 25 18 61t40 41q48 13 137 -12l61 -17z" />
    <glyph glyph-name="cent" unicode="&#xa2;" horiz-adv-x="493" 
d="M314 654q43 3 49 0.5t6 -33.5q0 -19 5 -28.5t20 -20.5q24 -18 30 -18q8 0 31 -31t24 -42q1 -9 -14.5 -18.5t-36 -20t-28.5 -17.5q-9 -10 -27.5 -10.5t-23.5 8.5q-19 31 -32 -30q-2 -9 -3 -21q-17 -112 -12 -122q5 -8 34 12q1 1 3 2l30 22l55 -28q55 -28 58 -38
q2 -4 -4.5 -15t-21 -26t-33.5 -30t-46.5 -27t-57.5 -17q-23 -4 -30 -9t-8 -19q-3 -24 -17.5 -31.5t-51.5 -6.5l-43 3l4 74l-49 32q-76 49 -102.5 130.5t5.5 169.5q20 54 70.5 95t107.5 48q29 4 38 9.5t16 23.5q9 19 17 23.5t38 6.5zM238 425q0 13 -3.5 18t-11.5 5
q-17 0 -35 -32t-21 -66q-2 -23 1 -35t16 -27q20 -25 25 -19q6 5 17.5 68.5t11.5 87.5z" />
    <glyph glyph-name="sterling" unicode="&#xa3;" horiz-adv-x="531" 
d="M223 641q33 9 91.5 10t89 -7t66.5 -26t46 -29q10 -12 2 -22q-7 -9 -30 -43.5t-41 -59.5t-22.5 -25t-9 5t-17 13.5t-35.5 14.5q-25 7 -34.5 6t-27.5 -14q-14 -10 -19.5 -19.5t-5.5 -26.5v-28h56q55 0 86 -5l31 -5l-5 -125l-164 -8v-58l238 -16v-139l-233 -4
q-234 -5 -255 0q-14 3 -17 12t-3 49v57l29 10q21 7 24.5 13.5t3.5 35.5t-3.5 35t-24.5 9l-29 4v123l57 8l6 54q7 73 48.5 129t101.5 72z" />
    <glyph glyph-name="section" unicode="&#xa7;" 
 />
    <glyph glyph-name="guillemotleft" unicode="&#xab;" 
 />
    <glyph glyph-name="guillemotright" unicode="&#xbb;" 
 />
    <glyph glyph-name="questiondown" unicode="&#xbf;" horiz-adv-x="480" 
d="M196 455q12 6 57 4t53 -9q8 -8 16.5 -72t2.5 -69q-8 -7 -57 -21q-44 -13 -56.5 -22t-12.5 -28q0 -29 41.5 -32.5t88.5 21.5q29 16 43 16t56 -63l42 -63l-23 -19q-23 -18 -68 -41q-32 -17 -53.5 -20t-90.5 -3q-67 0 -88 3.5t-44 17.5q-93 55 -93 163q0 57 35 104.5
t88 63.5q21 6 35 19.5t14 26.5q0 15 14 23zM153 642q3 7 23.5 8.5t77.5 0.5l96 -3v-164h-197l-2 73q-2 73 2 85z" />
    <glyph glyph-name="Agrave" unicode="&#xc0;" horiz-adv-x="714" 
d="M270 576q8 -3 51 2.5t86 4t58 -20.5q15 -18 15 -31t17 -50l31 -70q8 -19 15 -41.5t11.5 -35t11.5 -18.5q12 -9 12 -20.5t19 -54.5l38 -89q11 -27 31 -72t30 -73q13 -33 2.5 -39.5t-63.5 1.5q-48 8 -61 1q-15 -8 -48 -4t-38 14l-30 62l-206 5l-49 -81l-98 1h-7h-34t-24 2
t-18 3t-8.5 6.5t-4 9t4 15.5t7 20t12.5 27l3 6q67 143 67 156q0 5 1.5 8.5t5 8.5t12.5 26t21 53q16 43 33.5 83.5t25 58.5t7.5 25q0 14 27 59t34 42zM389 255q-7 20 -12 32t-10 20t-9 10t-8.5 -1.5t-9 -11t-11.5 -21.5q-21 -44 -23 -69l-2 -25h53q15 0 27 1t18.5 3t5.5 5
q-1 8 -19 57zM312 770q17 2 26 3t16 -3.5t8.5 -6.5t8.5 -16t11 -21q50 -92 40 -102q-8 -8 -59 -11q-38 -2 -51 2.5t-49 34.5q-17 13 -34 25.5t-27 20t-18 14t-11 10t-1 5.5q3 6 58 23.5t82 21.5z" />
    <glyph glyph-name="Aacute" unicode="&#xc1;" horiz-adv-x="707" 
d="M601 243q0 -12 37 -91.5t37 -89.5q0 -8 12 -35.5t9 -34.5q-7 -20 -136 -23l-62 -1l-38 79l-215 -5l-28 -74l-96 -2q-97 -3 -107 1q-8 3 -1 30.5t26 68.5q26 57 76 179t89 215t48 106q7 12 24.5 14.5t86.5 2.5q62 0 82 -2.5t22 -10.5q4 -14 21.5 -54.5t32 -75t14.5 -39.5
q0 -3 33 -76t33 -82zM398 214q-2 21 -19.5 61.5t-23.5 40.5q-7 0 -24.5 -44t-19.5 -66q-1 -11 6.5 -14t37.5 -3h45zM319 701l37 76l34 -5q33 -5 93.5 -23.5t60.5 -23.5q0 -7 -102 -84q-27 -20 -42 -25t-54 -5q-56 0 -60.5 7t33.5 83z" />
    <glyph glyph-name="Acircumflex" unicode="&#xc2;" horiz-adv-x="720" 
d="M106 -29q0 4 16.5 10.5t40 14.5t33.5 13q20 11 26.5 4t-2.5 -28q-7 -15 -16.5 -18t-45.5 -3q-52 0 -52 7zM40 62q0 6 16.5 39.5t16.5 41.5q0 9 36 83t43 99q4 14 16 34.5t12 34.5q0 9 1.5 14t5 9t11 19t15.5 37l27 69q9 24 15.5 34t101.5 8q67 -1 83.5 -4.5t27.5 -16.5
q15 -19 15 -30q0 -9 16.5 -42.5t16.5 -41.5t7 -22.5t22 -45.5t28 -65l53 -124l-38 -31h25q13 0 20 -4.5t9.5 -11t8.5 -22.5t14 -30q11 -22 29 -73.5t15 -53.5q-6 -7 -106.5 -3t-108.5 10q-11 9 -11 27q0 29 -19 39t-80 14q-60 1 -84.5 2.5t-44 -3.5t-26 -9.5t-30 -15
t-56.5 -20.5q-41 -12 -50 -23q-6 -8 -40.5 -12.5t-41.5 2.5q-3 3 4 22.5t16 40t9 25.5zM374 302q-7 23 -14 23t-25 -40t-22 -65q-3 -19 0.5 -23t26.5 -4q11 0 21.5 -1t16 -2t13.5 -2q13 -4 16 -1.5t0 15.5q-4 20 -15 49zM565 145q20 16 8 15q-44 -2 -83 -25q-19 -10 -9 -13
q14 -5 41 2.5t43 20.5zM450 115q0 11 -33 -3l-6 -2q-25 -13 -17 -20q4 -3 13 -3q11 0 27 10.5t16 17.5zM295 757q20 10 75 10h54l58 -73q58 -73 58 -78t-56.5 -5t-66 12.5t-18.5 12.5q-8 0 -17.5 8.5t-15.5 12t-21 -5.5q-49 -40 -111 -40q-45 0 -49 7q-5 7 43.5 68.5
t66.5 70.5z" />
    <glyph glyph-name="Adieresis" unicode="&#xc4;" horiz-adv-x="727" 
d="M635 165.5q0 -4.5 41 -96.5t41 -100q0 -6 -108 -3l-109 2l-41 78h-209l-12 -27q-12 -26 -16 -41q-2 -9 -20 -11.5t-85 -2.5q-102 0 -106 4q-3 3 0 17t14.5 42.5t21.5 51.5l30 69t30 70q12 28 23.5 54.5t19 43.5t14.5 33t11 25.5t7.5 18t5.5 12.5t3 8t1.5 6.5t0.5 5.5
q0 13 12 23q8 7 14.5 4t9.5 -9.5t13 -13t25 -6.5q25 0 60 -17.5t51 -14.5q25 5 11 21q-10 11 -32 19q-30 11 -48 18.5t-27.5 11t-27.5 9.5q-22 6 -26 21t9 42q12 26 23.5 35t34.5 12q24 3 87.5 1.5t70.5 -5.5q13 -8 46 -88.5t26 -87.5q-4 -3 -15.5 -0.5t-28 5.5t-31.5 5.5
t-25.5 0t-10.5 -12.5t39.5 -25.5t65.5 -15.5q22 0 30 -4t14 -19q11 -26 30 -68.5t30.5 -69t11.5 -31zM379 286q-17 38 -26 38t-24 -52q-11 -40 -18 -61q-4 -13 1.5 -15.5t40.5 -0.5q37 2 42.5 5.5t3.5 21.5q-2 25 -20 64zM377 732q2 7 19 8.5t61 0.5l76 -2l2 -60
q2 -44 -0.5 -53t-18.5 -15q-22 -9 -81 -6l-58 2l-2 57q-3 56 2 68zM250 735q6 1 17 1q22 2 30 3t18.5 -1t13 -3.5t5.5 -9.5t2.5 -14.5t-0.5 -23.5v-14v-66h-147v123z" />
    <glyph glyph-name="Ccedilla" unicode="&#xc7;" horiz-adv-x="618" 
d="M79 72q5 5 74 -1q12 -1 -10 -14q-19 -11 -32 -11q-9 0 -18 5t-13.5 11t-0.5 10zM142 530q4 0 14.5 6t32.5 17t49 19q95 28 198 -4t151 -104l21 -32l-27 -19q-42 -30 -77.5 -48.5t-44.5 -25.5q-9 -8 -19.5 -1t-17.5 18t-25 24t-41 16q-44 6 -69 -2.5t-44 -36.5
q-15 -22 -19 -38t-3 -58v-63l34 -30q33 -29 58 -35q25 -5 58 8.5t53 37.5q15 17 21.5 19t25.5 -5t41.5 -24t28.5 -17q10 0 38.5 -20t28.5 -27q0 -2 -8.5 -14.5t-24 -24.5t-29.5 -9q-19 5 -32 0q-7 -2 -8.5 -4t0.5 -5.5t9 -11.5q10 -11 8.5 -16t-18.5 -19q-16 -13 -22.5 -16
t-16.5 -6t-26 -11q-24 -13 -47.5 -17.5t-29.5 -10.5t-10 -30q-4 -32 -16 -63q-4 -13 -7.5 -17.5t-8 -8.5t-15 -1t-22 7.5t-37.5 14.5q-23 10 -33 14.5t-19.5 11.5t-11 9.5t2 10.5t9.5 13.5t20 18.5l33 31l-19 15q-19 14 -30 14q-19 0 -52 27q-28 23 -6 23q6 0 17.5 4.5
t26.5 10t54.5 11t96.5 6.5q10 0 17 6.5t9.5 14.5t8.5 14t16 6q16 0 16 8q0 5 -2.5 7t-10.5 0.5t-20.5 -5t-34.5 -11.5q-33 -11 -57 -13t-80 2l-114 7q-17 1 -26.5 6.5t-20.5 21.5q-27 40 -27 133t28 147q15 30 54.5 77t49.5 47zM455 69q-16 -1 -29 1t-18.5 4t-10.5 0.5
t-10 -7.5q-6 -8 -3 -11.5t21 -7.5q32 -9 54 -7t24 15q2 9 -3.5 11.5t-24.5 1.5z" />
    <glyph glyph-name="Egrave" unicode="&#xc8;" horiz-adv-x="547" 
d="M102 595q77 4 247 2t177 -7q9 -5 7.5 -74t-10.5 -74q-10 -6 -158 -10l-148 -5v-57l139 -2q138 -2 149.5 -6.5t9.5 -71.5l-3 -68l-295 -8l-3 -23q-2 -24 6 -32q7 -7 158 -12t156 -13q6 -8 2 -70t-10.5 -69t-255 -7t-254.5 6q-8 8 -6 302l2 295zM242 790q35 8 44 7.5
t19 -12.5q16 -18 40.5 -80.5t18.5 -68.5q-3 -2 -33 -3t-67.5 5t-51.5 21q-8 7 -36 32t-43.5 41t-11.5 19q5 5 45 18t76 21z" />
    <glyph glyph-name="Eacute" unicode="&#xc9;" horiz-adv-x="543" 
d="M16 590q5 5 260 3l254 -2l3 -72q2 -71 -9 -75q-7 -2 -156.5 -8.5t-155.5 -12.5q-7 -7 -4 -30l2 -23l287 -9l6 -32q6 -30 1.5 -63t-14.5 -37t-145 -9l-135 -6v-57l320 -9v-164l-250 -1q-250 -2 -260 7q-12 13 -10.5 304.5t6.5 295.5zM258 779q6 7 10 11t7 6t10 1t13 -2
t20.5 -4.5t27.5 -6.5q29 -6 46 -10.5t28 -11t13 -12.5t-4.5 -16.5t-18.5 -22t-34 -29.5l-57 -46h-60q-61 0 -61 12q0 11 22.5 60t37.5 71z" />
    <glyph glyph-name="Ecircumflex" unicode="&#xca;" horiz-adv-x="549" 
d="M49 598q51 4 260.5 3t216.5 -6q9 -6 7 -83l-3 -77l-319 -8l-3 -19q-3 -19 4 -27q7 -6 148 -8t148 -5q11 -4 11 -68t-11 -71q-10 -7 -154 -11l-143 -4v-57l328 -9l-1 -75q-1 -76 -5 -80q-5 -5 -256 -5t-259 4q-8 6 -8 304v298zM153 717l55 67h72q52 0 65 -3t23 -18
q8 -12 32 -43.5t38.5 -52.5t14.5 -25q0 -8 -61 -5q-37 2 -53 6.5t-28 15.5q-18 17 -32 17t-35 -17q-19 -15 -72 -21.5t-64 4.5q-9 8 45 75z" />
    <glyph glyph-name="Edieresis" unicode="&#xcb;" horiz-adv-x="539" 
d="M13 552l4 43l512 -4v-148l-320 -8v-65l287 -9v-131l-287 -8v-74l320 -8v-147h-517l-2 258q-2 258 3 301zM291 748q2 7 19 9t61 0l76 -2v-115h-156l-2 49q-3 48 2 59zM103 752q5 8 76 5l71 -2v-115l-69 -2q-69 -3 -77 5q-6 7 -6.5 52.5t5.5 56.5z" />
    <glyph glyph-name="Icircumflex" unicode="&#xce;" horiz-adv-x="371" 
d="M87 560.5q4 10.5 100 8.5l96 -3v-598h-196l-2 291q-2 291 2 301.5zM65 693l52 66h143l32 -43q69 -92 69 -100q0 -5 -48 -5q-36 0 -55.5 7t-54.5 30q-14 9 -21.5 9.5t-11.5 -3.5t-16 -14.5t-28 -19.5q-10 -5 -39.5 -7.5t-54 -0.5t-22.5 7q3 8 55 74z" />
    <glyph glyph-name="Idieresis" unicode="&#xcf;" horiz-adv-x="367" 
d="M87 560.5q4 10.5 100 8.5l97 -3l1 -270q2 -271 -4 -299l-6 -29h-188l-2 291q-2 291 2 301.5zM201 724q4 10 74 10h34t22.5 -3.5t15 -6.5t7 -14t3.5 -21.5v-31.5v-41h-147l-6 49q-7 49 -3 59zM13 724q2 6 18 8t58 1l72 -3v-114h-148l-2 48q-3 48 2 60z" />
    <glyph glyph-name="Ntilde" unicode="&#xd1;" horiz-adv-x="631" 
d="M32 598q22 3 90 4q41 1 56.5 -1.5t23.5 -11.5q12 -14 64 -80t96.5 -119.5t52.5 -55.5q3 0 5.5 4.5t4 19t2.5 38.5t2 65l2 130l42 6q42 6 90 0l48 -6l6 -295q7 -295 3 -305.5t-89 -10.5h-86l-35 39q-26 30 -74 93.5t-81.5 105t-42.5 41.5q-7 0 -4.5 -67t5 -127.5
t-8.5 -76.5q-12 -8 -88.5 -7.5t-90.5 7.5q-11 6 -13 46q-2 42 -2 261v299zM404 773q14 14 28.5 14t49.5 -12q12 -5 14 -11.5t-1 -26.5q-4 -31 -27 -64q-17 -24 -27 -29t-47 -6q-32 -2 -64 4t-49.5 12.5t-33.5 5t-26 -15.5q-7 -10 -16.5 -12t-35.5 2q-39 6 -42.5 21t20.5 67
q14 30 24 42.5t22 15.5q20 5 68 0.5t87 -14.5q27 -7 35 -6t21 13z" />
    <glyph glyph-name="Oacute" unicode="&#xd3;" horiz-adv-x="678" 
d="M271 604q46 6 108 0.5t97 -20.5q55 -23 98 -67t66 -98t28 -115t-17 -116q-47 -124 -157.5 -180.5t-247.5 -26.5q-38 8 -99 44t-61 50q0 6 -5 12t-14.5 16.5t-17.5 25.5l-25 50q-14 26 -14 108q0 58 4 78t23 57q39 75 101 123t133 59zM397 415q-52 27 -102 10t-74 -70
q-18 -39 -19 -64t15 -59q16 -36 37.5 -54t53.5 -22q85 -12 130 44q17 20 21 34.5t4 52.5q0 51 -15 80.5t-51 47.5zM343 791q7 11 24 6q92 -22 127 -33t34 -16q0 -9 -62 -63l-63 -53l-61 -3q-61 -3 -67 4q-4 4 23 67t45 91z" />
    <glyph glyph-name="Ocircumflex" unicode="&#xd4;" horiz-adv-x="677" 
d="M52 456q0 8 17.5 29t45 46t71 46.5t87.5 26.5q187 23 299 -87q31 -30 44.5 -51.5t27.5 -59.5q20 -55 22.5 -103.5t-5.5 -75t-17.5 -49.5t-9.5 -28q0 -16 -52 -67t-86 -68q-60 -31 -128 -37t-129 10.5t-114 56t-84 95.5q-30 54 -31 147.5t29 138.5q13 21 13 30zM392 418
q-31 15 -64 13t-58 -18.5t-43.5 -42.5t-21.5 -59t8 -68q14 -41 38 -64q16 -15 29.5 -18.5t55.5 -3.5h62l32 36q23 26 27.5 39t4.5 57q0 40 -4 55.5t-17 32.5q-21 28 -49 41zM249 758q16 18 29 22t60 4t60.5 -3.5t28.5 -19.5q24 -27 57 -75.5t29 -52.5q-4 -5 -51 -5
q-29 0 -45 4.5t-38 20.5q-33 22 -45 22.5t-36 -19.5q-16 -14 -31.5 -18.5t-47.5 -6.5q-52 -2 -57 5q-9 16 87 122z" />
    <glyph glyph-name="Odieresis" unicode="&#xd6;" horiz-adv-x="690" 
d="M178 570q4 0 38 15t72 19q93 11 163.5 -10.5t128.5 -78.5q51 -50 73 -97t26 -115q3 -41 0.5 -60t-13.5 -43q-18 -39 -18 -46q0 -8 -58.5 -70.5t-65.5 -62.5q-6 0 -15 -6.5t-35 -16.5t-69 -17q-183 -29 -300 90q-38 40 -38 46t-16 23q-44 48 -41 148t50 173q17 27 61.5 68
t56.5 41zM400 409q-48 23 -94 7.5t-73 -64.5q-25 -43 -14.5 -89.5t51.5 -81.5q17 -14 31 -18.5t44 -5.5q33 0 45.5 4t31.5 23q32 31 44.5 64t7.5 58.5t-19 48t-28.5 36t-26.5 18.5zM369 758q9 6 51 7.5t71 -2.5l35 -5l-5 -126h-155l-3 61q-2 60 6 65zM167 754q3 8 47 11.5
t80 -2.5l36 -5l-5 -126h-156l-2 57q-3 56 0 65z" />
    <glyph glyph-name="Ugrave" unicode="&#xd9;" horiz-adv-x="622" 
d="M15.5 565.5q5.5 5.5 104.5 3.5l99 -3l4 -189q3 -119 6 -157.5t12 -52.5q26 -38 102 -27q37 5 48 22q15 23 19 146q1 24 2 69l4 189h196v-217v-83.5t-1.5 -63t-2.5 -49t-6 -35.5t-9 -29t-14 -22.5t-18.5 -23t-25.5 -23.5q-83 -79 -245 -70q-72 3 -120 22.5t-89 61.5
q-34 34 -47.5 66.5t-18.5 89.5t-5 182q0 188 5.5 193.5zM260 759q15 4 24 4t15.5 -2t12.5 -11.5t12 -20t18 -32t25 -42.5q18 -28 9.5 -36t-59.5 -8q-47 0 -60.5 5t-44.5 31q-42 36 -61 46q-39 20 16 39q8 3 17 5z" />
    <glyph glyph-name="Uacute" unicode="&#xda;" horiz-adv-x="620" 
d="M20 587.5q5 7.5 99 7.5h94v-101q0 -185 12.5 -252t47.5 -77q20 -5 46.5 -4t44.5 8q10 4 16 8t11.5 15t8 23.5t4.5 41t3 59.5t3 86l4 189h196v-434l-24 -50q-46 -92 -155 -121q-51 -14 -120 -13.5t-121 13.5q-35 10 -53 20.5t-47 39.5t-40.5 48t-23.5 58q-13 44 -15 80
t1 165q3 183 8 190.5zM316 786q6 6 43.5 -1t65.5 -19q35 -15 55 -15t20 -7t-63 -58l-62 -50h-61q-56 0 -57 7q-1 2 1 7q3 7 9.5 25t13.5 33t16 28q14 22 14 33.5t5 16.5z" />
    <glyph glyph-name="Ucircumflex" unicode="&#xdb;" horiz-adv-x="624" 
d="M468 572q46 3 89 1t53 -8q7 -5 1 -196t-15 -229q-15 -65 -61.5 -111t-116.5 -66q-52 -14 -92 -15t-102 12q-56 12 -101.5 38.5t-68.5 61.5q-30 46 -37.5 102t-6.5 213l3 191h196l4 -193q4 -168 12 -195q7 -22 31 -35q3 -1 7 -3q35 -18 72.5 -8t59.5 43q11 16 13 47.5
t1 159.5l-2 184zM190 697l51 63l140 -5l51 -64q52 -65 52 -72.5t-45 -7.5q-32 0 -53.5 8t-63.5 34q-10 7 -19.5 4t-34.5 -20q-23 -16 -39 -21t-44 -5q-45 0 -45 11.5t50 74.5z" />
    <glyph glyph-name="Udieresis" unicode="&#xdc;" horiz-adv-x="618" 
d="M39 571q21 3 84 1.5t77 -6.5q10 -3 12 -192l3 -189l21 -21q18 -17 47.5 -23.5t62.5 -0.5q13 2 21 6t14.5 15t9.5 25.5t5.5 44.5t3.5 64.5t2 93.5l1 182l205 -5v-200q0 -81 -1.5 -125t-4.5 -81t-12.5 -58t-21 -38t-33.5 -39q-16 -16 -27.5 -26t-23.5 -15.5t-19 -8
t-24.5 -7.5l-31.5 -9q-37 -12 -103 -10.5t-120 15.5q-39 10 -57 20t-42 34q-38 38 -58 75q-14 28 -16.5 62.5t-2.5 193.5v217zM330 616l-5 119l160 -5v-114l-49 -6q-50 -5 -78 1zM135 730q5 5 75 3l70 -3v-114l-69 -6q-69 -6 -76 -2q-6 4 -6 59.5t6 62.5z" />
    <glyph glyph-name="germandbls" unicode="&#xdf;" horiz-adv-x="367" 
d="M12 -160q0 28 3.5 39t13.5 11q8 0 28.5 -30t20.5 -43q0 -11 -6 -14t-27 -3h-33v40zM270 325q4 0 24.5 -13.5t41.5 -36.5t21 -42v-24l-20 15q-20 15 -20.5 25t-28.5 10q-20 0 -48 16t-58 21q-38 6 -38 12q0 8 12 16.5t30 12.5q22 6 45 30q16 17 19.5 30t3.5 55t-4 55.5
t-21 30.5q-25 26 -54.5 30t-53.5 -14q-27 -20 -35 -51.5t-8 -117.5q0 -102 -11 -101q-4 0 -9.5 9t-26.5 3l-21 -5l5 60q8 94 38 150.5t86 82.5q37 17 53.5 18t48.5 -12q31 -12 57 -48.5t26 -66.5q0 -25 -9 -44.5t-38 -54.5q-42 -51 -7 -51z" />
    <glyph glyph-name="agrave" unicode="&#xe0;" horiz-adv-x="498" 
d="M201 450q53 6 126.5 -10t102.5 -40q24 -20 41 -50q12 -20 14.5 -52t2.5 -157v-180l-90 2q-90 2 -100 14q-4 7 -17.5 6t-27.5 -9t-36 -14.5t-44 -10.5t-50.5 3t-56.5 25q-37 25 -47.5 48t-8.5 76q2 39 6.5 53t20.5 31q20 22 46 31t31 13q10 8 97 3l86 -5l-5 26
q-6 35 -28 46t-79 7q-66 -4 -84 -10q-11 -4 -17.5 1.5t-16.5 29.5q-17 38 -17 66v27l63 14q64 14 88 16zM290 150q-9 7 -26 8.5t-33.5 -2.5t-29 -16.5t-12.5 -32.5q0 -14 18 -33.5t32 -19.5t28.5 12t22.5 28t9.5 32.5t-9.5 23.5zM82 584q0 10 63 30t92 19q9 0 15 -2
t10.5 -4.5t10 -11.5t9 -16l13 -26t16.5 -34q26 -50 26 -59q0 -8 -61 -8h-60l-67 51q-27 21 -47 39t-20 22z" />
    <glyph glyph-name="aacute" unicode="&#xe1;" horiz-adv-x="508" 
d="M75 210q0 8 12.5 8t12.5 -8t-12.5 -8t-12.5 8zM141 226q0 8 12 8t12 -8t-12 -8t-12 8zM101 432q57 15 142 15t127 -15q73 -25 100 -69q21 -33 -5 -49q-17 -12 -47 -16q-28 -5 -58.5 -18.5t-30.5 -22.5q0 -6 24 -1t42 8q37 5 45 11q14 11 30.5 11.5t20.5 -9.5
q7 -14 7 -161l-1 -148l-93 -2q-66 -2 -80 0t-17 14t-17.5 16t-21.5 -7q-4 -7 -37 -24q-67 -35 -147 5q-40 20 -57 48.5t-17 72.5q0 30 8.5 48t24 26t32.5 11.5t41.5 9t42.5 14.5q25 12 82 16q39 3 49.5 7t15.5 18q15 41 -47 59t-123 1q-5 -1 -9 -3q-27 -9 -41.5 0t-20.5 40
l-11 56q-4 18 2 23t45 15zM295 151q-17 17 -72 2q-13 -3 -17.5 -10.5t-5.5 -26.5q-4 -44 24 -57.5t58 18.5q18 18 21.5 40t-8.5 34zM251 628q5 8 28 8q18 0 84.5 -20t74.5 -28q3 -2 -16.5 -19.5t-50 -40.5t-57.5 -42q-16 -10 -71 -14t-64 5q-3 3 25.5 62t46.5 89z" />
    <glyph glyph-name="acircumflex" unicode="&#xe2;" horiz-adv-x="504" 
d="M199 451q26 4 77 -1.5t83 -15.5t67.5 -34t35.5 -36q0 -9 14 -25q9 -10 12 -44t5 -147t0.5 -145t-9.5 -35q-12 -5 -97 -7q-76 -1 -83 5q-4 3 -5 12q-2 17 -7 17q-6 -1 -38 -21q-22 -15 -39 -18.5t-58 -3.5q-46 0 -59.5 4.5t-42.5 28.5l-40 34l-5 138l31 29q66 62 170 54
q58 -4 70 -7q17 -4 16 15q-1 23 -24 44q-22 20 -52 23.5t-53.5 -4t-46 -14t-30.5 -3.5q-10 4 -29.5 54t-15.5 60q2 7 53.5 21t99.5 22zM285 161q-17 7 -28 7.5t-25 -5.5q-30 -11 -38.5 -39.5t13.5 -47.5q25 -23 56 -6.5t39 56.5q4 17 1 23t-18 12zM243 622q59 3 66 4
q6 2 42.5 -36.5t36.5 -46.5q0 -4 24 -34.5t21 -36.5q-6 -9 -55 -5t-61 16q-16 14 -41 22q-17 6 -28.5 4t-37.5 -15q-35 -18 -80.5 -23.5t-50.5 6.5q-2 4 13 26.5t37 49.5l55 66z" />
    <glyph glyph-name="adieresis" unicode="&#xe4;" horiz-adv-x="518" 
d="M59 405.5q2 11.5 56.5 25t123 16.5t133.5 -13q66 -19 101 -69.5t35 -125.5q0 -39 -10.5 -46.5t-64.5 -7.5q-65 0 -65 -7t35 -14t58 -5q28 3 37.5 -11t8.5 -56q0 -50 -6 -87l-5 -36l-50 -3q-49 -2 -77 -6q-24 -3 -41 4t-17 20q0 12 -5 11q-7 0 -50 -24
q-30 -17 -46.5 -20.5t-50.5 -1.5q-97 6 -134 85q-27 58 -6.5 113t76.5 74q54 19 80.5 23t70.5 -2q59 -8 63 -4t-4 27q-11 33 -48 38.5t-110 -2.5l-27 -3l-32 -2l-15 49q-16 49 -14 60.5zM277 206q-9 6 -34.5 8t-36.5 -2q-16 -6 1 -17q16 -10 39 -10q37 0 38 13q0 4 -7 8z
M311 149q-10 12 -45 12q-21 0 -31 -4t-18 -14q-13 -19 -12 -38.5t16 -34.5q16 -16 29 -15t35 20q21 17 28.5 39.5t-2.5 34.5zM290 600q3 7 31.5 7.5t110.5 -3.5q11 -1 9 -60l-3 -59l-34 -7q-34 -7 -74 0l-39 6l-3 53q-2 52 2 63zM87 595q15 15 113 13l41 -1l5 -127h-155
l-5 54q-6 55 1 61z" />
    <glyph glyph-name="ccedilla" unicode="&#xe7;" horiz-adv-x="487" 
d="M170 433q41 13 99 14q108 1 178 -72q34 -34 27.5 -52t-61.5 -48q-47 -25 -64 -26t-35 21q-12 15 -38.5 13t-46.5 -18q-21 -17 -27.5 -42.5t2 -48t25 -39t43.5 -16.5t55 22l27 20l61 -34q37 -20 49.5 -30.5t12.5 -21.5q0 -23 -38.5 -57.5t-80.5 -49.5q-40 -15 -53 -31.5
t-27 -69.5q-11 -45 -21.5 -51t-42.5 13q-36 20 -49.5 20t-32.5 16l-19 15l27 31q26 30 24 42q-2 9 -19 22.5t-43 26.5q-9 5 -42 47q-76 101 -37 234q13 45 57 89.5t90 60.5z" />
    <glyph glyph-name="egrave" unicode="&#xe8;" horiz-adv-x="512" 
d="M154 452q81 35 173 10.5t133 -91.5q13 -22 28.5 -84t13.5 -85l-2 -21l-146 -4q-96 -3 -122 -6t-28 -12q-1 -10 18.5 -28.5t52.5 -25t79 26.5q18 14 27.5 15t22.5 -7.5t49 -40.5l33 -29l-41 -35q-70 -63 -175 -63q-36 0 -88.5 15t-69.5 31q-13 12 -21 12q-12 0 -39 47.5
t-35 82.5q-21 89 18.5 173.5t118.5 118.5zM301 319q-20 25 -47 23.5t-43 -28.5l-1 -1q-19 -31 -13 -38q6 -8 86 -11h1h1h1h1h1h1h1h1h1h1h2q18 -1 20 16.5t-14 38.5zM199 651q37 9 48 2q16 -9 48 -77q5 -9 20 -42q15 -32 8 -38.5t-55 -6.5h-59l-68 54q-29 23 -48.5 41.5
t-18.5 22.5q2 6 41 20t84 24z" />
    <glyph glyph-name="eacute" unicode="&#xe9;" horiz-adv-x="514" 
d="M152 448q29 14 49.5 19t52.5 5q33 0 53 -4.5t37 -12.5t32 -11q20 -5 51 -36.5t42 -58.5l19 -45q10 -24 13 -74l3 -49l-146 -2q-93 -1 -120 -4t-31 -11q-4 -13 16 -30t53.5 -22t76.5 17q27 16 43 11t58 -40q32 -27 25 -40q-7 -12 -42.5 -37.5t-45.5 -25.5q-11 0 -20.5 -10
t-98 -10.5t-101.5 8.5q-7 6 -20 9.5t-31.5 14t-43.5 35.5q-102 103 -47 270q28 86 123 134zM295 333q-16 9 -44 8t-36 -10q-8 -11 -14 -36l-5 -26l55 -6q54 -6 62 3q9 9 2.5 34.5t-20.5 32.5zM257 651q3 4 5.5 5.5t9 1t12.5 -2l20 -5t28 -5.5q42 -8 74.5 -20t32.5 -19
q0 -9 -63 -60l-63 -51l-62 -2q-63 -1 -66 4q-2 3 29 69.5t43 84.5z" />
    <glyph glyph-name="ecircumflex" unicode="&#xea;" horiz-adv-x="509" 
d="M149 444q41 19 60 23.5t58 2.5q54 -2 101 -23t76 -56q25 -29 41.5 -81t13.5 -93l-3 -36l-148 -4q-95 -3 -121.5 -6t-27.5 -11q-3 -12 23.5 -29.5t56.5 -22.5q17 -3 30.5 0.5t37.5 18.5l39 25l49 -38q49 -38 49 -44t-37 -36q-71 -59 -170.5 -61t-178.5 53q-32 22 -32 32
t-16 24q-12 10 -17 26t-17 81q-7 32 -6 49.5t11 50.5q17 59 46 93.5t82 61.5zM303 316q-16 23 -41.5 24.5t-45 -16.5t-19.5 -46q0 -14 8 -16.5t51 -0.5q51 2 60.5 13t-13.5 42zM245 638q63 3 67 5q7 2 65 -69.5t58 -80.5q0 -4 -48 -4q-27 0 -46 5t-44 19l-44 24l-39 -24
q-23 -15 -40.5 -19.5t-45.5 -4.5q-46 0 -46 4q0 9 14.5 30.5t22.5 25.5q12 4 12 13t26 41q19 24 30.5 28.5t57.5 6.5z" />
    <glyph glyph-name="edieresis" unicode="&#xeb;" horiz-adv-x="506" 
d="M283 111q20 0 41.5 10.5t36.5 20.5t20 10q8 0 56 -38t48 -44q0 -11 -44 -42t-74 -41q-24 -9 -56.5 -13t-73.5 0t-79 17t-73.5 43.5t-55.5 75.5q-14 31 -17 50.5t-1 65.5q4 64 21 105t53 72q28 23 54.5 38t61.5 24.5t78 3.5t91 -27q42 -19 61.5 -41t48.5 -81q9 -20 14 -76
t-2 -63q-5 -5 -150 -5q-131 0 -141 -7q-3 -2 -3 -8q0 -16 28.5 -33t56.5 -17zM291 328q-17 17 -43 13t-42 -25q-23 -32 -13.5 -42.5t60.5 -12.5q35 -2 48 0t16 9q4 10 -3.5 26.5t-22.5 31.5zM285 614q4 6 71 4l67 -2v-115l-68 -3q-50 -1 -59.5 1.5t-16.5 19.5
q-6 15 -3.5 48.5t9.5 46.5zM87 609q2 7 17 8.5t55 0.5l67 -2v-115h-139l-2 48q-3 49 2 60z" />
    <glyph glyph-name="icircumflex" unicode="&#xee;" horiz-adv-x="376" 
d="M82 435q2 6 87.5 6.5t103.5 -5.5q7 -3 8.5 -51.5t0.5 -184.5l-2 -232h-197l-2 229q-3 229 1 238zM80 580l34 40h145l53 -69q54 -69 54 -74t-53 -5q-40 0 -61.5 7t-46.5 29q-18 16 -29 7q-53 -43 -117 -43q-45 0 -49 7q-3 5 16.5 26.5t19.5 26.5q0 7 34 48z" />
    <glyph glyph-name="idieresis" unicode="&#xef;" horiz-adv-x="376" 
d="M95 429.5q4 10.5 92 8.5l88 -3l6 -192q2 -70 3 -115.5t-0.5 -77.5t-3 -48t-7 -24.5t-9.5 -10.5t-14 -3h-4q-29 -5 -94 0l-65 4l2 225q2 226 6 236.5zM209 584q5 12 74.5 12.5t74.5 -11.5q3 -10 5 -60l3 -49h-156l-3 49q-2 48 2 59zM13 584q2 7 18 9t58 0l72 -2v-115h-148
l-2 49q-3 48 2 59z" />
    <glyph glyph-name="oacute" unicode="&#xf3;" horiz-adv-x="551" 
d="M203 461q35 12 88.5 8t91.5 -23q66 -31 99.5 -70.5t49.5 -105.5q9 -37 9 -52.5t-11 -54.5q-12 -44 -37 -85.5t-46 -52.5q-17 -9 -30 -19q-15 -13 -62 -24.5t-83 -11.5q-63 1 -121.5 26t-84.5 64q-32 47 -44 80.5t-12 75.5q0 99 73 172q28 28 54 43.5t66 29.5zM333 284
q-14 13 -46 19t-50 -1q-16 -7 -31.5 -33t-15.5 -45q0 -36 27 -66t59 -30q21 0 48 24q18 16 22 27t4 42q0 26 -3.5 39.5t-13.5 23.5zM279 647q5 5 9 7.5t10.5 2t11.5 -1.5t18.5 -5t25.5 -7q99 -23 104 -37q3 -10 -60.5 -59.5t-79.5 -50.5q-21 -1 -64.5 1t-45.5 5
q-4 3 27.5 67.5t43.5 77.5z" />
    <glyph glyph-name="ocircumflex" unicode="&#xf4;" horiz-adv-x="551" 
d="M180 449q36 16 55.5 19.5t53.5 0.5q80 -6 143 -48.5t91 -109t12 -136.5q-10 -43 -46 -98.5t-55 -55.5q-7 0 -29 -15q-17 -12 -50 -21t-78.5 -9t-90 12t-87.5 47.5t-69 91.5q-42 93 1 186t149 136zM331 283q-24 25 -51 24q-33 -1 -46 -7.5t-27 -29.5q-19 -30 -14 -63.5
t32 -56.5q26 -22 50 -21.5t51 25.5q19 16 24 27t5 37q0 24 -4.5 36.5t-19.5 28.5zM152 569l49 68l150 -5l52 -64q52 -65 44 -73q-13 -12 -54.5 -7t-76.5 23q-27 14 -38 16.5t-20 -3.5q-49 -35 -109 -35q-39 0 -43 6t46 74z" />
    <glyph glyph-name="odieresis" unicode="&#xf6;" horiz-adv-x="543" 
d="M154 448q86 42 186 16.5t150 -103.5q36 -54 41.5 -113t-13.5 -105.5t-46.5 -81t-57.5 -51.5q-89 -48 -190 -34t-158 82q-35 42 -45.5 73t-10.5 88q0 71 12 100q15 34 53 71.5t79 57.5zM328 283q-17 15 -44.5 20.5t-46.5 -2.5t-36.5 -34.5t-17.5 -46.5q0 -32 28.5 -61.5
t59.5 -30.5q18 0 47 25q20 18 24.5 28.5t4.5 40.5q0 26 -4 38t-15 23zM343 620q58 4 82 3h25v-130h-164v123zM151 620q6 1 17 2q24 2 33 2.5t20.5 -1t14 -3t6 -10t3.5 -15.5v-24v-13v-65h-156v123z" />
    <glyph glyph-name="ugrave" unicode="&#xf9;" horiz-adv-x="535" 
d="M19 428q6 7 23 9t61 1q78 -2 87 -5q21 -7 24 -40q1 -9 1 -100q0 -96 2.5 -118.5t14.5 -35.5q34 -36 70 -2q14 13 16.5 32.5t3.5 105.5q1 117 7 135q7 22 35 25h52q82 0 96 -5q10 -4 12 -39.5t0 -194.5l-2 -228h-188l-3 23q-2 20 -10.5 20.5t-26.5 -18.5q-16 -17 -52 -31
t-65 -14q-44 0 -87 28t-62 70q-13 29 -17 198t8 184zM104 586q5 5 62 22.5t83 18.5q23 1 31.5 -8.5t35.5 -64.5l36 -74l-21 -9q-22 -9 -64 -5q-29 2 -45 11t-59 48q-62 57 -59 61z" />
    <glyph glyph-name="uacute" unicode="&#xfa;" horiz-adv-x="528" 
d="M16 442q4 10 20.5 12t78.5 0l92 -2l2 -135q2 -95 5 -118t15 -36q21 -22 44.5 -18t37.5 32q15 30 13 149t6 122q10 9 99 6l89 -2v-468l-192 -4v24q0 21 -10 24.5t-24 -12.5q-27 -32 -89 -41t-105 13q-25 12 -39 24.5t-25 30.5t-15.5 49t-6.5 70t-2 105q0 160 6 175z
M255 643q15 10 54 4.5t81 -19t42 -21.5q0 -9 -63 -60q-42 -33 -59.5 -42t-41.5 -10q-73 -2 -80 5q-3 3 27.5 67.5t39.5 75.5z" />
    <glyph glyph-name="ucircumflex" unicode="&#xfb;" horiz-adv-x="520" 
d="M336 439q17 6 95 5l79 -1v-475h-94q-66 0 -80.5 2.5t-16.5 13.5q-8 46 -37 12q-15 -18 -44 -30.5t-64 -16t-73.5 14t-65.5 56.5l-25 36v379h197v-292l20 -15q20 -16 34 -16t33 15q14 11 17 33t5 127q3 131 10 144q3 5 10 8zM176 597q16 16 29 19.5t64 3.5q48 0 61.5 -3
t19.5 -13q5 -11 29.5 -43t42.5 -58t14 -30q-1 -1 -19 -3.5t-53.5 3t-65.5 24.5q-24 15 -34 18t-14 0t-17 -14t-33 -19q-11 -5 -38.5 -7.5t-50.5 -2t-23 5.5t34.5 51t53.5 68z" />
    <glyph glyph-name="udieresis" unicode="&#xfc;" horiz-adv-x="536" 
d="M16 434q6 6 94 5t92 -7q5 -7 10 -146q1 -41 2.5 -65t4 -44.5t5.5 -30t9 -16.5t13 -8.5t18 -1.5q22 0 39 19q12 13 15 36.5t5 120.5l3 139l190 5l5 -112q6 -119 5.5 -237t-6.5 -122q-8 -5 -101 -7l-93 -2l-3 22q-4 37 -26 10q-13 -16 -46 -28t-72.5 -16t-81 15.5
t-64.5 61.5l-23 41v182q0 181 6 186zM292 584q3 7 19 9t58 0l71 -2l5 -120l-152 5l-3 49q-2 48 2 59zM97 585.5q3 10.5 75 7.5l72 -2v-115l-70 -2q-62 -2 -75.5 8t-8.5 54q4 39 7 49.5z" />
    <glyph glyph-name="eogonek" unicode="&#x119;" horiz-adv-x="342" 
d="M143 423q20 8 58 5t61 -14q20 -10 44.5 -49.5t25.5 -62.5q0 -20 -26.5 -27.5t-113.5 -12.5q-98 -5 -106 -15q-10 -12 1 -52t30 -63q35 -43 69.5 -49t88.5 20q39 12 40 8q0 -8 -59 -67q-34 -35 -48.5 -55t-20.5 -41q-9 -36 1.5 -52t41.5 -13q29 3 31 -4t-23 -26
q-18 -14 -29.5 -17.5t-29.5 -0.5q-31 6 -42 19.5t-12 47.5q0 24 5.5 37.5t27.5 40.5q34 40 34 45t-28 5q-76 0 -121.5 70t-27.5 161q5 28 16.5 50t20.5 34.5t9 17.5q0 7 29.5 28.5t52.5 31.5zM200 394q-22 12 -30.5 11.5t-30.5 -14.5q-26 -15 -35 -28.5t-11 -37.5l-3 -29h82
q73 0 80 7q3 2 4 11q3 18 -15 43t-41 37z" />
    <glyph glyph-name="quotedblleft" unicode="&#x201c;" horiz-adv-x="462" 
d="M258 641.5q4 10.5 99 10.5h95v-86q0 -65 -9.5 -114.5t-25.5 -69.5q-20 -26 -72 -52q-80 -41 -89 7q-1 6 -1 12q0 14 5.5 20.5t19.5 12.5q28 12 43 37q18 33 -30 38h-3l-31 3l-2 85q-3 86 1 96.5zM13 642q2 7 22.5 8.5t74.5 0.5l92 -3l2 -93q3 -106 -21 -157t-89 -76
q-37 -14 -53.5 -12.5t-23.5 20.5q-9 25 -5.5 34.5t25.5 17.5q18 6 33.5 25t16.5 36q0 9 -37 13l-37 4l-2 85q-3 86 2 97z" />
    <glyph glyph-name="quotedblbase" unicode="&#x201e;" horiz-adv-x="461" 
d="M361 651q48 14 69 6t21 -39q0 -14 -5.5 -21.5t-22.5 -14.5q-22 -9 -39.5 -34.5t-8.5 -35.5q7 -6 40 -9l32 -2l-1 -89q-1 -89 -9 -97t-97 -5l-89 2l-3 108q-2 73 0.5 97t14.5 49q30 64 98 85zM121 649q9 1 22.5 4.5t20 4.5t15.5 0.5t13.5 -4.5t8.5 -13t6 -24.5t-2.5 -21.5
t-21.5 -11q-22 -8 -36.5 -24.5t-14.5 -35.5q0 -12 6 -15.5t29 -5.5l34 -2v-49q-1 -50 -4 -95l-4 -45h-180l-3 115q-2 114 7 137q11 26 44 53t60 32z" />
    <glyph glyph-name="bullet" unicode="&#x2022;" 
 />
    <glyph glyph-name="Euro" unicode="&#x20ac;" horiz-adv-x="441" 
d="M212 587q22 17 104 17q95 0 104 -31q2 -8 -3 -17q-6 -12 -15.5 -14t-45.5 1q-64 6 -98.5 -2.5t-60.5 -36.5q-25 -25 -40 -59t-7 -46q5 -9 116 -9q69 0 90.5 -2.5t25.5 -10.5q1 -6 1.5 -10.5t-5.5 -8t-13.5 -5.5t-24 -3.5t-37 -2.5t-51.5 -1l-118 -1v-49h254v-41l-117 -3
q-68 -1 -93.5 -4t-28.5 -9q-7 -19 11.5 -55t47.5 -60q28 -24 41.5 -28t64.5 -4q68 0 82 11q9 8 13.5 7.5t11.5 -11.5q14 -18 7.5 -31t-36.5 -28q-63 -31 -144.5 -12t-126.5 76q-28 35 -46 89q-11 35 -18.5 45.5t-24.5 16.5q-43 13 3 35q22 11 21 32.5t-25 26.5q-14 3 -19 12
t1.5 18t21.5 11q19 4 26.5 14t32.5 64q16 34 45.5 68t43.5 34q8 0 29 17z" />
  </font>
</defs>
</svg>
